# Blender v2.75 (sub 0) OBJ File: 'artifact speed.blend'
# www.blender.org
mtllib artifact speed.mtl
o Cube_Cube.001
v -0.854000 -2.589437 0.044738
v -1.000000 -2.443437 0.044738
v -0.854000 -2.443437 -0.008504
v -0.854000 -2.589437 0.667603
v -0.854000 -2.443437 0.720846
v -1.000000 -2.443437 0.667603
v -0.854000 1.982359 0.044738
v -0.854000 1.836359 -0.008504
v -1.000000 1.836359 0.044738
v -0.854000 1.836359 0.720846
v -0.854000 1.982359 0.667603
v -1.000000 1.836359 0.667603
v 0.854000 -2.589437 0.044738
v 0.854000 -2.443437 -0.008504
v 1.000000 -2.443437 0.044738
v 0.854000 -2.443437 0.720846
v 0.854000 -2.589437 0.667603
v 1.000000 -2.443437 0.667603
v 1.000000 1.836359 0.044738
v 0.854000 1.836359 -0.008504
v 0.854000 1.982359 0.044738
v 0.854000 1.836359 0.720846
v 1.000000 1.836359 0.667603
v 0.854000 1.982359 0.667603
v -0.854000 -1.743831 1.181575
v -1.000000 -1.597831 1.181575
v -0.854000 -1.597831 1.128332
v -0.854000 -1.743831 1.804439
v -0.854000 -1.597831 1.857682
v -1.000000 -1.597831 1.804439
v -0.854000 2.294258 1.181575
v -0.854000 2.148258 1.128332
v -1.000000 2.148258 1.181575
v -0.854000 2.148258 1.857682
v -0.854000 2.294258 1.804439
v -1.000000 2.148258 1.804439
v 0.854000 -1.743831 1.181575
v 0.854000 -1.597831 1.128332
v 1.000000 -1.597831 1.181575
v 0.854000 -1.597831 1.857682
v 0.854000 -1.743831 1.804439
v 1.000000 -1.597831 1.804439
v 1.000000 2.148258 1.181575
v 0.854000 2.148258 1.128332
v 0.854000 2.294258 1.181575
v 0.854000 2.148258 1.857682
v 1.000000 2.148258 1.804439
v 0.854000 2.294258 1.804439
v -0.854000 -0.979433 2.297741
v -1.000000 -0.833433 2.297741
v -0.854000 -0.833433 2.244499
v -0.854000 -0.979433 2.920606
v -0.854000 -0.833433 2.973849
v -1.000000 -0.833433 2.920606
v -0.854000 2.894065 2.297741
v -0.854000 2.748065 2.244499
v -1.000000 2.748065 2.297741
v -0.854000 2.748065 2.973849
v -0.854000 2.894065 2.920606
v -1.000000 2.748065 2.920606
v 0.854000 -0.979433 2.297741
v 0.854000 -0.833433 2.244499
v 1.000000 -0.833433 2.297741
v 0.854000 -0.833433 2.973849
v 0.854000 -0.979433 2.920606
v 1.000000 -0.833433 2.920606
v 1.000000 2.748065 2.297741
v 0.854000 2.748065 2.244499
v 0.854000 2.894065 2.297741
v 0.854000 2.748065 2.973849
v 1.000000 2.748065 2.920606
v 0.854000 2.894065 2.920606
vn 0.000000 0.000000 -1.000000
vn 1.000000 0.000000 0.000000
vn -1.000000 0.000000 0.000000
vn 0.000000 0.000000 1.000000
vn 0.000000 -1.000000 0.000000
vn 0.000000 1.000000 0.000000
vn -0.324100 -0.324100 -0.888800
vn -0.324100 -0.324100 0.888800
vn -0.324100 0.324100 -0.888800
vn -0.324100 0.324100 0.888800
vn 0.324100 -0.324100 -0.888800
vn 0.324100 -0.324100 0.888800
vn 0.324100 0.324100 -0.888800
vn 0.324100 0.324100 0.888800
vn -0.707100 -0.707100 0.000000
vn -0.342600 0.000000 0.939500
vn -0.707100 0.707100 0.000000
vn -0.342600 0.000000 -0.939500
vn 0.000000 0.342600 0.939500
vn 0.707100 0.707100 0.000000
vn 0.000000 0.342600 -0.939500
vn 0.342600 0.000000 0.939500
vn 0.707100 -0.707100 0.000000
vn 0.342600 0.000000 -0.939500
vn 0.000000 -0.342600 0.939500
vn 0.000000 -0.342600 -0.939500
usemtl Material.001
s off
f 3//1 8//1 20//1 14//1
f 23//2 18//2 15//2 19//2
f 30//3 36//3 33//3 26//3
f 16//4 22//4 10//4 5//4
f 17//5 4//5 1//5 13//5
f 11//6 24//6 21//6 7//6
f 27//1 32//1 44//1 38//1
f 47//2 42//2 39//2 43//2
f 54//3 60//3 57//3 50//3
f 40//4 46//4 34//4 29//4
f 41//5 28//5 25//5 37//5
f 35//6 48//6 45//6 31//6
f 51//1 56//1 68//1 62//1
f 71//2 66//2 63//2 67//2
f 64//4 70//4 58//4 53//4
f 65//5 52//5 49//5 61//5
f 59//6 72//6 69//6 55//6
f 1//7 2//7 3//7
f 4//8 5//8 6//8
f 7//9 8//9 9//9
f 10//10 11//10 12//10
f 13//11 14//11 15//11
f 16//12 17//12 18//12
f 19//13 20//13 21//13
f 22//14 23//14 24//14
f 25//7 26//7 27//7
f 28//8 29//8 30//8
f 31//9 32//9 33//9
f 34//10 35//10 36//10
f 37//11 38//11 39//11
f 40//12 41//12 42//12
f 43//13 44//13 45//13
f 46//14 47//14 48//14
f 49//7 50//7 51//7
f 52//8 53//8 54//8
f 55//9 56//9 57//9
f 58//10 59//10 60//10
f 61//11 62//11 63//11
f 64//12 65//12 66//12
f 67//13 68//13 69//13
f 70//14 71//14 72//14
f 1//15 4//15 6//15 2//15
f 5//16 10//16 12//16 6//16
f 11//17 7//17 9//17 12//17
f 8//18 3//18 2//18 9//18
f 10//19 22//19 24//19 11//19
f 23//20 19//20 21//20 24//20
f 20//21 8//21 7//21 21//21
f 22//22 16//22 18//22 23//22
f 17//23 13//23 15//23 18//23
f 14//24 20//24 19//24 15//24
f 16//25 5//25 4//25 17//25
f 3//26 14//26 13//26 1//26
f 25//15 28//15 30//15 26//15
f 29//16 34//16 36//16 30//16
f 35//17 31//17 33//17 36//17
f 32//18 27//18 26//18 33//18
f 34//19 46//19 48//19 35//19
f 47//20 43//20 45//20 48//20
f 44//21 32//21 31//21 45//21
f 46//22 40//22 42//22 47//22
f 41//23 37//23 39//23 42//23
f 38//24 44//24 43//24 39//24
f 40//25 29//25 28//25 41//25
f 27//26 38//26 37//26 25//26
f 49//15 52//15 54//15 50//15
f 53//16 58//16 60//16 54//16
f 59//17 55//17 57//17 60//17
f 56//18 51//18 50//18 57//18
f 58//19 70//19 72//19 59//19
f 71//20 67//20 69//20 72//20
f 68//21 56//21 55//21 69//21
f 70//22 64//22 66//22 71//22
f 65//23 61//23 63//23 66//23
f 62//24 68//24 67//24 63//24
f 64//25 53//25 52//25 65//25
f 51//26 62//26 61//26 49//26
f 6//3 12//3 9//3 2//3
