# Blender v2.75 (sub 0) OBJ File: ''
# www.blender.org
mtllib artifact_f.mtl
o Sphere
v 0.558059 -0.373172 3.920502
v 0.661104 -0.782548 3.660070
v 0.948317 -0.995721 3.230010
v 0.956907 -1.381832 2.805173
v 1.241797 -1.305534 2.003844
v 1.180731 -1.241071 1.311393
v 0.838791 -0.880099 0.869087
v 0.607809 -0.636262 0.454245
v 0.358590 -0.373172 -0.029699
v 0.133334 -0.610965 3.920502
v 0.251624 -0.879324 3.828060
v 0.410307 -1.867625 2.691096
v 0.470690 -2.119559 2.003844
v 0.447364 -2.015254 1.311393
v 0.316755 -1.431190 0.869087
v 0.228528 -1.036653 0.454245
v 0.133334 -0.610965 -0.029699
v -0.145097 -0.610965 3.920502
v -0.270685 -1.172575 3.698642
v -0.422062 -1.618936 3.217383
v -0.253805 -1.783859 2.838162
v -0.482452 -2.119559 2.003844
v -0.459127 -2.015254 1.311393
v -0.328518 -1.431190 0.869087
v -0.240290 -1.036653 0.454245
v -0.145097 -0.610965 -0.029699
v -0.370353 -0.373172 3.920502
v -0.699147 -0.720266 3.698642
v -0.960080 -0.995721 3.230010
v -1.127609 -1.172574 2.639498
v -1.253559 -1.305535 2.003844
v -1.192494 -1.241071 1.311393
v -0.850554 -0.880099 0.869087
v -0.619572 -0.636262 0.454245
v -0.370353 -0.373172 -0.029699
v 0.743435 -1.497275 4.985220
v 1.066097 -1.727305 4.869717
v 1.122869 -2.144700 4.726051
v 0.239907 -1.689521 5.044001
v 0.315229 -2.201688 5.105231
v 0.436867 -2.407077 4.623658
v -0.087697 -1.896958 4.996891
v -0.257757 -2.228292 4.870599
v -0.066412 -2.450753 4.585323
v 0.358590 -0.373172 5.449539
v 0.133334 -0.610965 5.449539
v -0.145097 -0.610965 5.449539
v -0.370353 -0.373172 5.449539
v -0.145097 -0.708762 4.709883
v 0.133334 -0.708762 4.709883
v 0.455081 -0.470969 4.709883
v -0.370353 -0.470969 4.709883
v -0.401101 -1.991580 4.180422
v -0.227374 -1.573314 4.503780
v 0.722826 -1.146965 4.477008
v 0.228847 -1.304182 4.598001
v 1.052444 -1.386389 4.186589
v 1.088340 -1.820462 3.883359
v 0.421287 -2.221401 3.766675
v -0.206719 -2.201398 3.822983
v -0.456393 0.011585 -0.029699
v 0.652738 0.011585 3.920502
v 0.851043 0.011585 3.698642
v 1.015621 0.011585 3.230010
v 1.247585 0.011585 2.639498
v 1.536334 0.011585 2.003844
v 1.460852 0.011585 1.311393
v 1.038191 0.011585 0.869087
v 0.752682 0.011585 0.454245
v 0.444630 0.011585 -0.029699
v -0.005881 0.011585 -0.133375
v 0.558059 0.396341 3.920502
v 0.661104 0.805717 3.660070
v 0.948317 1.018891 3.230010
v 0.956907 1.405002 2.805173
v 1.241797 1.328704 2.003844
v 1.180731 1.264240 1.311393
v 0.838791 0.903269 0.869087
v 0.607809 0.659431 0.454245
v 0.358590 0.396341 -0.029699
v 0.133334 0.634134 3.920502
v 0.251624 0.902493 3.828060
v 0.410307 1.890794 2.691096
v 0.470690 2.142728 2.003844
v 0.447364 2.038423 1.311393
v 0.316755 1.454360 0.869087
v 0.228528 1.059822 0.454245
v 0.133334 0.634134 -0.029699
v -0.145097 0.634134 3.920502
v -0.270685 1.195744 3.698642
v -0.422062 1.642105 3.217383
v -0.253805 1.807028 2.838162
v -0.482452 2.142728 2.003844
v -0.459127 2.038423 1.311393
v -0.328518 1.454360 0.869087
v -0.240290 1.059822 0.454245
v -0.145097 0.634134 -0.029699
v -0.370353 0.396341 3.920502
v -0.699147 0.743435 3.698642
v -0.960080 1.018891 3.230010
v -1.127609 1.195744 2.639498
v -1.253559 1.328704 2.003844
v -1.192494 1.264240 1.311393
v -0.850554 0.903269 0.869087
v -0.619572 0.659431 0.454245
v -0.370353 0.396341 -0.029699
v -0.456393 0.011585 3.920502
v -0.862805 0.011585 3.698642
v -1.185336 0.011585 3.230010
v -1.392413 0.011585 2.639498
v -1.548096 0.011585 2.003844
v -1.472615 0.011585 1.311393
v -1.049954 0.011585 0.869087
v -0.764445 0.011585 0.454245
v 0.743435 1.520444 4.985220
v 1.066097 1.750475 4.869717
v 1.122869 2.167869 4.726051
v 0.239907 1.712690 5.044001
v 0.315229 2.224857 5.105231
v 0.436867 2.430246 4.623658
v -0.087697 1.920127 4.996891
v -0.257757 2.251461 4.870599
v -0.066412 2.473922 4.585323
v 0.652738 0.011585 5.449539
v 0.358590 0.396341 5.449539
v 0.133334 0.634134 5.449539
v -0.145097 0.634134 5.449539
v -0.005882 0.011585 5.710928
v -0.370353 0.396341 5.449539
v -0.456393 0.011585 5.449539
v -0.145097 0.731931 4.709883
v 0.133334 0.731931 4.709883
v 0.455081 0.494138 4.709883
v 0.652738 0.011585 4.709883
v -0.456393 0.011585 4.709883
v -0.370353 0.494138 4.709883
v -0.401101 2.014749 4.180422
v -0.227374 1.596483 4.503780
v 0.722826 1.170134 4.477008
v 0.228847 1.327351 4.598001
v 1.052444 1.409559 4.186589
v 1.088340 1.843631 3.883359
v 0.421287 2.244570 3.766675
v -0.206719 2.224567 3.822983
vt 0.175137 0.706303
vt 0.210090 0.746753
vt 0.120844 0.824922
vt 0.108659 0.758206
vt 0.275595 0.822562
vt 0.299379 0.850087
vt 0.270516 0.885020
vt 0.215165 0.884737
vt 0.065438 0.579347
vt 0.094875 0.613414
vt 0.053131 0.636705
vt 0.040907 0.591911
vt 0.148280 0.675221
vt 0.087751 0.718945
vt 0.244411 0.786473
vt 0.167513 0.842368
vt 0.120287 0.642824
vt 0.067396 0.674815
vt 0.000104 0.688691
vt 0.002498 0.642610
vt 0.050200 0.845237
vt 0.022422 0.799152
vt 0.256630 0.946129
vt 0.233889 0.937485
vt 0.010078 0.590906
vt 0.002982 0.749279
vt 0.120333 0.907553
vt 0.147020 0.917914
vt 0.134358 0.945207
vt 0.122345 0.939914
vt 0.511473 0.350442
vt 0.516866 0.315689
vt 0.544932 0.337643
vt 0.544642 0.356518
vt 0.513146 0.400419
vt 0.555037 0.386900
vt 0.401845 0.014401
vt 0.443349 0.034513
vt 0.397948 0.083343
vt 0.373751 0.054869
vt 0.527258 0.114304
vt 0.543987 0.174041
vt 0.474937 0.220423
vt 0.437277 0.158805
vt 0.447821 0.406321
vt 0.422153 0.412467
vt 0.391754 0.386725
vt 0.433606 0.327969
vt 0.352762 0.000104
vt 0.342324 0.026531
vt 0.493671 0.066467
vt 0.421472 0.120129
vt 0.169360 0.940554
vt 0.187644 0.985187
vt 0.147547 0.999896
vt 0.146805 0.959104
vt 0.359196 0.142960
vt 0.349226 0.106852
vt 0.457617 0.258233
vt 0.369468 0.254159
vt 0.369082 0.213540
vt 0.338479 0.076561
vt 0.364509 0.176169
vt 0.349112 0.369028
vt 0.362741 0.305208
vt 0.323690 0.042212
vt 0.301647 0.181867
vt 0.301647 0.150405
vt 0.301647 0.298258
vt 0.301647 0.251901
vt 0.301647 0.113395
vt 0.301647 0.214375
vt 0.301647 0.082955
vt 0.301647 0.361162
vt 0.033302 0.542156
vt 0.309640 0.972415
vt 0.324163 0.937601
vt 0.365585 0.961383
vt 0.360029 0.986741
vt 0.301647 0.439770
vt 0.336562 0.445268
vt 0.319984 0.485369
vt 0.301647 0.482905
vt 0.301647 0.003306
vt 0.363067 0.456156
vt 0.390615 0.472488
vt 0.355566 0.517320
vt 0.338724 0.495884
vt 0.301647 0.047394
vt 0.348716 0.907186
vt 0.373378 0.935728
vt 0.111787 0.996501
vt 0.087437 0.970367
vt 0.603190 0.322021
vt 0.586894 0.361205
vt 0.557460 0.321264
vt 0.526829 0.286800
vt 0.586750 0.255846
vt 0.065181 0.921252
vt 0.408481 0.976352
vt 0.301647 0.526043
vt 0.236135 0.648057
vt 0.300378 0.669790
vt 0.345878 0.771791
vt 0.338129 0.826598
vt 0.081428 0.556898
vt 0.123974 0.575491
vt 0.200323 0.621675
vt 0.310869 0.718497
vt 0.159612 0.595133
vt 0.137162 0.526250
vt 0.183103 0.530565
vt 0.289158 0.568672
vt 0.330726 0.602841
vt 0.395352 0.797968
vt 0.400606 0.821723
vt 0.084905 0.526250
vt 0.242632 0.542203
vt 0.382210 0.681271
vt 0.413936 0.687957
vt 0.417431 0.700610
vt 0.388589 0.709180
vt 0.091821 0.350442
vt 0.058652 0.356518
vt 0.058362 0.337643
vt 0.086428 0.315689
vt 0.090148 0.400419
vt 0.048256 0.386900
vt 0.201449 0.014401
vt 0.229543 0.054869
vt 0.205346 0.083343
vt 0.159945 0.034514
vt 0.076036 0.114304
vt 0.166017 0.158805
vt 0.128357 0.220423
vt 0.059307 0.174041
vt 0.155473 0.406321
vt 0.169688 0.327969
vt 0.211540 0.386725
vt 0.181140 0.412466
vt 0.250532 0.000104
vt 0.260970 0.026531
vt 0.109623 0.066467
vt 0.181822 0.120129
vt 0.407749 0.734567
vt 0.429375 0.714942
vt 0.469628 0.721593
vt 0.449258 0.759133
vt 0.254068 0.106852
vt 0.244098 0.142960
vt 0.234212 0.213540
vt 0.233826 0.254159
vt 0.145677 0.258233
vt 0.264815 0.076561
vt 0.238785 0.176169
vt 0.240552 0.305208
vt 0.254182 0.369028
vt 0.279604 0.042212
vt 0.418924 0.877986
vt 0.425789 0.929920
vt 0.399893 0.931738
vt 0.382371 0.887305
vt 0.283310 0.485369
vt 0.266731 0.445268
vt 0.240227 0.456156
vt 0.264570 0.495884
vt 0.247728 0.517320
vt 0.212679 0.472488
vt 0.471457 0.685719
vt 0.449131 0.657835
vt 0.000104 0.322021
vt 0.045834 0.321264
vt 0.016400 0.361204
vt 0.076464 0.286800
vt 0.016544 0.255846
vt 0.403764 0.628690
vn 0.991900 0.000000 0.126500
vn 0.946000 0.000000 0.324100
vn 0.895800 -0.433500 0.098100
vn 0.884200 -0.456600 0.098800
vn 0.828300 0.000000 0.560200
vn 0.921900 0.000000 0.387300
vn 0.771000 -0.449300 0.451300
vn 0.719800 0.286100 0.632400
vn 0.610200 0.000000 -0.792200
vn 0.833000 0.000000 -0.553200
vn 0.713300 -0.371500 -0.594300
vn 0.527000 -0.263900 -0.807800
vn 0.914000 0.000000 -0.405800
vn 0.792300 -0.430400 -0.432400
vn 0.926800 0.000000 0.375500
vn 0.975200 0.074200 0.208200
vn 0.771300 0.000000 -0.636400
vn 0.654200 -0.338400 -0.676400
vn 0.269000 -0.595500 -0.757000
vn 0.300100 -0.670100 -0.678800
vn 0.339700 -0.940200 0.024200
vn 0.372700 -0.924000 0.084900
vn 0.254800 -0.788400 0.559900
vn -0.089900 0.332100 0.938900
vn 0.231600 -0.494300 -0.837900
vn 0.344000 -0.809700 -0.475400
vn 0.896500 -0.400600 -0.189400
vn 0.904400 0.405700 0.132200
vn 0.798200 0.104700 0.593200
vn 0.768900 -0.593300 0.238300
vn -0.776400 0.496500 0.388100
vn -0.978300 -0.195900 0.066800
vn -0.729600 -0.423300 0.537000
vn -0.595400 0.252200 0.762800
vn -0.334000 0.783300 0.524300
vn -0.203700 0.414900 0.886700
vn -0.269000 -0.595500 -0.757000
vn -0.300100 -0.670100 -0.678800
vn -0.451300 -0.885500 0.110700
vn -0.388300 -0.914200 0.116200
vn -0.346700 -0.723700 0.596700
vn -0.732500 0.008900 0.680700
vn -0.231600 -0.494300 -0.837900
vn -0.344000 -0.809700 -0.475400
vn 0.315500 0.835400 0.450000
vn 0.270400 0.541000 0.796400
vn -0.792300 -0.430400 -0.432400
vn -0.654200 -0.338400 -0.676400
vn -0.848500 -0.498500 0.177400
vn -0.777800 -0.430100 0.458300
vn -0.824500 -0.473900 0.309000
vn -0.713300 -0.371500 -0.594300
vn -0.867300 -0.488100 0.097600
vn -0.753000 -0.360500 0.550500
vn -0.584300 -0.294200 0.756300
vn -0.527000 -0.263900 -0.807800
vn -0.997900 0.000000 0.064200
vn -0.914000 0.000000 -0.405800
vn -0.686800 0.000000 0.726800
vn -0.895200 0.000000 0.445600
vn -0.771300 0.000000 -0.636400
vn -0.959100 0.000000 0.282900
vn -0.833000 0.000000 -0.553200
vn -0.842800 0.000000 0.538100
vn 0.000000 0.000000 -1.000000
vn 0.307100 -0.951400 0.020700
vn 0.767300 -0.639400 0.048600
vn 0.632700 -0.523200 0.570900
vn 0.300100 -0.774200 0.557300
vn -1.000000 0.000000 0.000400
vn -0.879100 -0.476600 0.001800
vn -0.765200 -0.395400 0.508000
vn -0.879300 0.000000 0.476100
vn -0.384000 -0.923300 0.003700
vn -0.332300 -0.766400 0.549600
vn -0.610200 0.000000 -0.792200
vn 0.997400 0.000000 0.072000
vn 0.860800 0.000000 0.508900
vn 0.052400 -0.451900 0.890500
vn 0.239200 -0.955200 0.174300
vn -0.331900 -0.940900 0.067400
vn -0.508000 -0.826400 -0.242600
vn 0.244700 -0.917600 -0.313300
vn -0.036400 0.000000 0.999300
vn 0.884200 0.456600 0.098800
vn 0.895800 0.433500 0.098100
vn 0.719800 -0.286100 0.632400
vn 0.771000 0.449300 0.451300
vn 0.527000 0.263900 -0.807800
vn 0.713300 0.371500 -0.594300
vn 0.792300 0.430400 -0.432400
vn 0.975200 -0.074200 0.208200
vn 0.654200 0.338400 -0.676400
vn 0.300100 0.670100 -0.678800
vn 0.269000 0.595500 -0.757000
vn 0.372700 0.924000 0.084900
vn 0.339700 0.940200 0.024200
vn -0.089900 -0.332100 0.938900
vn 0.254800 0.788400 0.559900
vn 0.231600 0.494300 -0.837900
vn 0.344000 0.809700 -0.475400
vn 0.896500 0.400600 -0.189400
vn 0.768900 0.593300 0.238300
vn 0.798200 -0.104700 0.593200
vn 0.904400 -0.405700 0.132200
vn -0.776400 -0.496500 0.388100
vn -0.595400 -0.252200 0.762800
vn -0.729600 0.423300 0.537000
vn -0.978300 0.195900 0.066800
vn -0.334000 -0.783300 0.524300
vn -0.203700 -0.414900 0.886700
vn -0.300100 0.670100 -0.678800
vn -0.269000 0.595500 -0.757000
vn -0.388300 0.914200 0.116200
vn -0.451300 0.885500 0.110700
vn -0.732500 -0.008900 0.680700
vn -0.346700 0.723700 0.596700
vn -0.231600 0.494300 -0.837900
vn -0.344000 0.809700 -0.475400
vn 0.315500 -0.835400 0.450000
vn 0.270400 -0.541000 0.796400
vn -0.654200 0.338400 -0.676400
vn -0.792300 0.430400 -0.432400
vn -0.824500 0.473900 0.309000
vn -0.777800 0.430100 0.458300
vn -0.848500 0.498500 0.177400
vn -0.713300 0.371500 -0.594300
vn -0.867300 0.488100 0.097600
vn -0.584300 0.294200 0.756300
vn -0.753000 0.360500 0.550500
vn -0.527000 0.263900 -0.807800
vn 0.307100 0.951400 0.020700
vn 0.300100 0.774200 0.557300
vn 0.632700 0.523200 0.570900
vn 0.767300 0.639400 0.048600
vn -0.765200 0.395400 0.508000
vn -0.879100 0.476600 0.001800
vn -0.384000 0.923300 0.003700
vn -0.332300 0.766400 0.549600
vn 0.052400 0.451900 0.890500
vn 0.239200 0.955200 0.174300
vn -0.331900 0.940900 0.067400
vn -0.508000 0.826400 -0.242600
vn 0.244700 0.917600 -0.313300
usemtl Material.001
s 1
f 66/1/1 65/2/2 4/3/3 5/4/4
f 63/5/5 62/6/6 1/7/7 2/8/8
f 70/9/9 69/10/10 8/11/11 9/12/12
f 67/13/13 66/1/1 5/4/4 6/14/14
f 64/15/15 63/5/5 2/8/8 3/16/16
f 68/17/17 67/13/13 6/14/14 7/18/18
f 65/2/2 64/15/15 3/16/16 4/3/3
f 69/10/10 68/17/17 7/18/18 8/11/11
f 8/11/11 7/18/18 15/19/19 16/20/20
f 5/4/4 4/3/3 12/21/21 13/22/22
f 2/8/8 1/7/7 10/23/23 11/24/24
f 9/12/12 8/11/11 16/20/20 17/25/25
f 6/14/14 5/4/4 13/22/22 14/26/26
f 58/27/27 57/28/28 37/29/29 38/30/30
f 7/18/18 6/14/14 14/26/26 15/19/19
f 54/31/31 53/32/32 43/33/33 42/34/34
f 56/35/35 54/31/31 42/34/34 39/36/36
f 16/37/20 15/38/19 24/39/37 25/40/38
f 13/41/22 12/42/21 21/43/39 22/44/40
f 11/45/24 10/46/23 18/47/41 19/48/42
f 17/49/25 16/37/20 25/40/38 26/50/43
f 14/51/26 13/41/22 22/44/40 23/52/44
f 55/53/45 56/54/35 39/55/36 36/56/46
f 15/38/19 14/51/26 23/52/44 24/39/37
f 24/39/37 23/52/44 32/57/47 33/58/48
f 21/43/39 20/59/49 29/60/50 30/61/51
f 25/40/38 24/39/37 33/58/48 34/62/52
f 22/44/40 21/43/39 30/61/51 31/63/53
f 19/48/42 18/47/41 27/64/54 28/65/55
f 26/50/43 25/40/38 34/62/52 35/66/56
f 23/52/44 22/44/40 31/63/53 32/57/47
f 20/59/49 19/48/42 28/65/55 29/60/50
f 32/57/47 31/63/53 111/67/57 112/68/58
f 29/60/50 28/65/55 108/69/59 109/70/60
f 33/58/48 32/57/47 112/68/58 113/71/61
f 30/61/51 29/60/50 109/70/60 110/72/62
f 34/62/52 33/58/48 113/71/61 114/73/63
f 31/63/53 30/61/51 110/72/62 111/67/57
f 28/65/55 27/64/54 107/74/64 108/69/59
f 71/75/65 70/9/9 9/12/12
f 50/76/66 51/77/67 45/78/68 46/79/69
f 135/80/70 52/81/71 48/82/72 130/83/73
f 71/75/65 9/12/12 17/25/25
f 71/84/65 17/49/25 26/50/43
f 71/84/65 26/50/43 35/66/56
f 49/85/74 50/86/66 46/87/69 47/88/75
f 71/84/65 35/66/56 61/89/76
f 51/77/67 134/90/77 124/91/78 45/78/68
f 35/66/56 34/62/52 114/73/63 61/89/76
f 37/29/29 36/56/46 39/55/36 40/92/79
f 38/30/30 37/29/29 40/92/79 41/93/80
f 41/94/80 40/95/79 43/33/33 44/96/81
f 40/95/79 39/36/36 42/34/34 43/33/33
f 60/97/82 59/98/83 41/94/80 44/96/81
f 59/99/83 58/27/27 38/30/30 41/93/80
f 53/32/32 60/97/82 44/96/81 43/33/33
f 57/28/28 55/53/45 36/56/46 37/29/29
f 124/91/78 128/100/84 45/78/68
f 45/78/68 128/100/84 46/79/69
f 46/87/69 128/101/84 47/88/75
f 47/88/75 128/101/84 48/82/72
f 48/82/72 128/101/84 130/83/73
f 52/81/71 49/85/74 47/88/75 48/82/72
f 27/64/54 18/47/41 49/85/74 52/81/71
f 1/7/7 62/6/6 134/90/77 51/77/67
f 18/47/41 10/46/23 50/86/66 49/85/74
f 107/74/64 27/64/54 52/81/71 135/80/70
f 10/23/23 1/7/7 51/77/67 50/76/66
f 3/16/16 2/8/8 55/53/45 57/28/28
f 20/59/49 21/43/39 60/97/82 53/32/32
f 12/21/21 4/3/3 58/27/27 59/99/83
f 21/43/39 12/42/21 59/98/83 60/97/82
f 2/8/8 11/24/24 56/54/35 55/53/45
f 11/45/24 19/48/42 54/31/31 56/35/35
f 19/48/42 20/59/49 53/32/32 54/31/31
f 4/3/3 3/16/16 57/28/28 58/27/27
f 66/1/1 76/102/85 75/103/86 65/2/2
f 63/5/5 73/104/87 72/105/88 62/6/6
f 70/9/9 80/106/89 79/107/90 69/10/10
f 67/13/13 77/108/91 76/102/85 66/1/1
f 64/15/15 74/109/92 73/104/87 63/5/5
f 68/17/17 78/110/93 77/108/91 67/13/13
f 65/2/2 75/103/86 74/109/92 64/15/15
f 69/10/10 79/107/90 78/110/93 68/17/17
f 79/107/90 87/111/94 86/112/95 78/110/93
f 76/102/85 84/113/96 83/114/97 75/103/86
f 73/104/87 82/115/98 81/116/99 72/105/88
f 80/106/89 88/117/100 87/111/94 79/107/90
f 77/108/91 85/118/101 84/113/96 76/102/85
f 142/119/102 117/120/103 116/121/104 141/122/105
f 78/110/93 86/112/95 85/118/101 77/108/91
f 138/123/106 121/124/107 122/125/108 137/126/109
f 140/127/110 118/128/111 121/124/107 138/123/106
f 87/129/94 96/130/112 95/131/113 86/132/95
f 84/133/96 93/134/114 92/135/115 83/136/97
f 82/137/98 90/138/116 89/139/117 81/140/99
f 88/141/100 97/142/118 96/130/112 87/129/94
f 85/143/101 94/144/119 93/134/114 84/133/96
f 139/145/120 115/146/121 118/147/111 140/148/110
f 86/132/95 95/131/113 94/144/119 85/143/101
f 95/131/113 104/149/122 103/150/123 94/144/119
f 92/135/115 101/151/124 100/152/125 91/153/126
f 96/130/112 105/154/127 104/149/122 95/131/113
f 93/134/114 102/155/128 101/151/124 92/135/115
f 90/138/116 99/156/129 98/157/130 89/139/117
f 97/142/118 106/158/131 105/154/127 96/130/112
f 94/144/119 103/150/123 102/155/128 93/134/114
f 91/153/126 100/152/125 99/156/129 90/138/116
f 103/150/123 112/68/58 111/67/57 102/155/128
f 100/152/125 109/70/60 108/69/59 99/156/129
f 104/149/122 113/71/61 112/68/58 103/150/123
f 101/151/124 110/72/62 109/70/60 100/152/125
f 105/154/127 114/73/63 113/71/61 104/149/122
f 102/155/128 111/67/57 110/72/62 101/151/124
f 99/156/129 108/69/59 107/74/64 98/157/130
f 71/75/65 80/106/89 70/9/9
f 132/159/132 126/160/133 125/161/134 133/162/135
f 135/80/70 130/83/73 129/163/136 136/164/137
f 71/75/65 88/117/100 80/106/89
f 71/84/65 97/142/118 88/141/100
f 71/84/65 106/158/131 97/142/118
f 131/165/138 127/166/139 126/167/133 132/168/132
f 71/84/65 61/89/76 106/158/131
f 133/162/135 125/161/134 124/91/78 134/90/77
f 106/158/131 61/89/76 114/73/63 105/154/127
f 116/121/104 119/169/140 118/147/111 115/146/121
f 117/120/103 120/170/141 119/169/140 116/121/104
f 120/171/141 123/172/142 122/125/108 119/173/140
f 119/173/140 122/125/108 121/124/107 118/128/111
f 144/174/143 123/172/142 120/171/141 143/175/144
f 143/176/144 120/170/141 117/120/103 142/119/102
f 137/126/109 122/125/108 123/172/142 144/174/143
f 141/122/105 116/121/104 115/146/121 139/145/120
f 124/91/78 125/161/134 128/100/84
f 125/161/134 126/160/133 128/100/84
f 126/167/133 127/166/139 128/101/84
f 127/166/139 129/163/136 128/101/84
f 129/163/136 130/83/73 128/101/84
f 136/164/137 129/163/136 127/166/139 131/165/138
f 98/157/130 136/164/137 131/165/138 89/139/117
f 72/105/88 133/162/135 134/90/77 62/6/6
f 89/139/117 131/165/138 132/168/132 81/140/99
f 107/74/64 135/80/70 136/164/137 98/157/130
f 81/116/99 132/159/132 133/162/135 72/105/88
f 74/109/92 141/122/105 139/145/120 73/104/87
f 91/153/126 137/126/109 144/174/143 92/135/115
f 83/114/97 143/176/144 142/119/102 75/103/86
f 92/135/115 144/174/143 143/175/144 83/136/97
f 73/104/87 139/145/120 140/148/110 82/115/98
f 82/137/98 140/127/110 138/123/106 90/138/116
f 90/138/116 138/123/106 137/126/109 91/153/126
f 75/103/86 142/119/102 141/122/105 74/109/92
