# Blender v2.75 (sub 0) OBJ File: ''
# www.blender.org
mtllib artifact.mtl
o Cone
v 0.048687 2.177505 4.312041
v 0.048687 -0.130476 8.928003
v 2.047457 -1.284467 4.312041
v -1.950083 -1.284467 4.312041
vn -0.000000 -0.970100 0.242500
vn 0.840200 0.485100 0.242500
vn -0.840200 0.485100 0.242500
vn 0.000000 0.000000 -1.000000
usemtl None
s off
f 3//1 2//1 4//1
f 1//2 2//2 3//2
f 4//3 2//3 1//3
f 1//4 3//4 4//4
o Cylinder
v 0.005320 0.287507 0.595923
v 0.005320 0.287507 5.394204
v 0.265128 -0.162493 0.595923
v 0.265128 -0.162493 5.394204
v -0.254487 -0.162493 0.595923
v -0.254487 -0.162493 5.394204
vn 0.866000 0.500000 0.000000
vn -0.866000 0.500000 0.000000
vn -0.000000 -1.000000 0.000000
vn 0.000000 0.000000 1.000000
vn -0.000000 0.000000 -1.000000
usemtl None
s off
f 5//5 6//5 8//5 7//5
f 9//6 10//6 6//6 5//6
f 7//7 8//7 10//7 9//7
f 8//8 6//8 10//8
f 5//9 7//9 9//9
o Cube_Cube.001
v -2.321274 -1.420714 0.005555
v -1.190427 -1.835690 0.755662
v -2.268484 1.423951 0.005555
v -1.522156 1.142773 0.918063
v 2.692356 -0.988082 0.005555
v 1.674583 -0.857193 0.711916
v 1.546162 2.414858 0.005555
v 1.546162 1.514274 1.079002
v -1.522156 -0.019885 1.532758
v -3.007790 -0.524459 0.005555
v 1.546162 -0.019885 1.015681
v 2.717111 0.194540 0.005555
v 0.050915 1.514274 1.532758
v 0.050915 2.919864 0.005555
v 0.050915 -1.554044 1.290105
v -0.549296 -3.065859 0.005555
v 0.050915 -0.019885 1.532758
v 0.050915 -0.148769 0.005555
vn -0.718300 0.295200 0.630100
vn 0.221400 0.729600 0.647000
vn 0.616800 -0.086000 0.782400
vn -0.400200 -0.620100 0.674800
vn 0.000000 0.000000 -1.000000
vn -0.211800 0.217200 0.952900
vn -0.148700 -0.301400 0.941800
vn 0.787700 0.236100 0.569000
vn -0.587900 -0.419000 0.692000
vn 0.362900 -0.190500 0.912100
vn 0.308700 -0.019600 0.951000
vn 0.441700 -0.644400 0.624300
vn -0.421200 0.680600 0.599400
usemtl None
s off
f 19//10 14//10 13//10 20//10
f 23//11 18//11 17//11 24//11
f 21//12 16//12 15//12 22//12
f 25//13 12//13 11//13 26//13
f 28//14 24//14 17//14 22//14
f 27//15 23//15 14//15 19//15
f 25//16 27//16 19//16 12//16
f 26//14 28//14 22//14 15//14
f 18//17 21//17 22//17 17//17
f 12//18 19//18 20//18 11//18
f 11//14 20//14 28//14 26//14
f 16//19 21//19 27//19 25//19
f 21//20 18//20 23//20 27//20
f 20//14 13//14 24//14 28//14
f 16//21 25//21 26//21 15//21
f 14//22 23//22 24//22 13//22
