# Blender v2.75 (sub 0) OBJ File: 'artifact_shield.blend'
# www.blender.org
mtllib artifact_shield.mtl
o Plane
v -0.000000 2.041143 6.485139
v 0.073469 2.041143 6.558608
v 0.073469 2.188081 6.558608
v -0.000000 2.188081 6.485139
v 0.000000 2.188081 5.958051
v 0.000000 2.188081 5.811113
v 0.073469 2.114612 5.811113
v 0.073469 2.041143 5.884582
v 0.000000 2.041143 5.958051
v 0.073469 2.817384 6.485139
v -0.000000 2.743915 6.485139
v 0.073469 2.743915 6.558608
v 0.073469 2.817384 5.958051
v 0.073469 2.817384 5.811113
v 0.000000 2.743915 5.811113
v 0.000000 2.743915 5.958051
v 0.000000 2.166647 3.103375
v 0.073469 2.090229 3.107539
v 0.073469 2.114612 3.250313
v 0.000000 2.188081 3.250313
v 0.000000 2.718287 3.103375
v 0.000000 2.743915 3.250313
v 0.073469 2.817384 3.250313
v 0.073469 2.796033 3.106546
v 0.000000 1.909660 2.435804
v 0.073469 1.838234 2.464082
v 0.073469 1.908437 2.590816
v 0.000000 1.978273 2.567943
v 0.000000 2.432554 2.264409
v 0.000000 2.503392 2.395820
v 0.073469 2.573217 2.372914
v 0.073469 2.508332 2.243435
v 0.000000 1.334403 1.734041
v 0.073469 1.273850 1.778922
v 0.073469 1.375495 1.884116
v 0.000000 1.436135 1.842320
v 0.000000 1.787874 1.419957
v 0.000000 1.890534 1.527593
v 0.073469 1.950937 1.485720
v 0.073469 1.851964 1.378328
v 0.000000 0.288759 0.845548
v 0.073469 0.231714 0.894917
v 0.073469 0.346978 0.985860
v 0.000000 0.406024 0.939690
v 0.000000 0.710948 0.504131
v 0.000000 0.835890 0.592065
v 0.073469 0.893043 0.544403
v 0.073469 0.775157 0.457490
v 0.000000 -0.052799 0.704172
v 0.073469 -0.038771 0.784789
v 0.073469 0.080111 0.784789
v 0.000000 0.094139 0.704172
v 0.000000 -0.052799 0.121872
v 0.000000 0.094139 0.121872
v 0.073469 0.083118 0.028609
v 0.073469 -0.041779 0.028609
v 0.073469 0.094139 6.558608
v -0.000000 0.094139 6.485139
v -0.000000 -0.052799 6.485139
v 0.073469 -0.052799 6.558608
v 0.073469 0.094139 5.884582
v 0.073469 -0.052799 5.884582
v 0.000000 -0.052799 5.958051
v 0.000000 0.094139 5.958051
v -0.000000 -1.999804 6.485139
v -0.000000 -2.146741 6.485139
v 0.073469 -2.146741 6.558608
v 0.073469 -1.999804 6.558608
v 0.000000 -1.999804 5.958051
v 0.073469 -1.999804 5.884582
v 0.073469 -2.073272 5.811113
v 0.000000 -2.146741 5.811113
v 0.000000 -2.146741 5.958051
v 0.073469 -2.776044 6.485139
v 0.073469 -2.702575 6.558608
v -0.000000 -2.702575 6.485139
v 0.073469 -2.776044 5.958051
v 0.000000 -2.702575 5.958051
v 0.000000 -2.702575 5.811113
v 0.073469 -2.776044 5.811113
v 0.000000 -2.125308 3.103375
v 0.000000 -2.146741 3.250313
v 0.073469 -2.073272 3.250313
v 0.073469 -2.048890 3.107539
v 0.000000 -2.676948 3.103375
v 0.073469 -2.754694 3.106546
v 0.073469 -2.776044 3.250313
v 0.000000 -2.702575 3.250313
v 0.000000 -1.868320 2.435804
v 0.000000 -1.936934 2.567943
v 0.073469 -1.867098 2.590816
v 0.073469 -1.796894 2.464082
v 0.000000 -2.391215 2.264409
v 0.073469 -2.466992 2.243435
v 0.073469 -2.531878 2.372914
v 0.000000 -2.462052 2.395820
v 0.000000 -1.293063 1.734041
v 0.000000 -1.394796 1.842320
v 0.073469 -1.334155 1.884116
v 0.073469 -1.232511 1.778922
v 0.000000 -1.746534 1.419957
v 0.073469 -1.810625 1.378328
v 0.073469 -1.909598 1.485720
v 0.000000 -1.849194 1.527593
v 0.000000 -0.247419 0.845548
v 0.000000 -0.364684 0.939690
v 0.073469 -0.305639 0.985860
v 0.073469 -0.190375 0.894917
v 0.000000 -0.669609 0.504131
v 0.073469 -0.733817 0.457490
v 0.073469 -0.851704 0.544403
v 0.000000 -0.794551 0.592065
v 0.981068 0.094139 5.884582
v 1.054536 0.094139 5.958051
v 1.054536 -0.052799 5.958051
v 0.981068 -0.052799 5.884582
v 0.981068 2.817384 5.958051
v 1.054536 2.743915 5.958051
v 1.054536 2.743915 5.811113
v 0.981068 2.817384 5.811113
v 0.981068 2.041143 5.884582
v 0.981068 2.114612 5.811113
v 1.054536 2.188081 5.811113
v 1.054536 2.188081 5.958051
v 1.054536 2.041143 5.958051
v 0.981068 2.188081 6.558608
v 0.981068 2.041143 6.558608
v 1.054536 2.041143 6.485139
v 1.054536 2.188081 6.485139
v 0.981068 2.817384 6.485139
v 0.981068 2.743915 6.558608
v 1.054536 2.743915 6.485139
v 1.054536 2.166647 3.103375
v 1.054536 2.188081 3.250313
v 0.981068 2.114612 3.250313
v 0.981068 2.090229 3.107539
v 1.054536 2.718287 3.103375
v 0.981068 2.796033 3.106546
v 0.981068 2.817384 3.250313
v 1.054536 2.743915 3.250313
v 1.054536 1.909660 2.435804
v 1.054536 1.978273 2.567943
v 0.981068 1.908437 2.590816
v 0.981068 1.838234 2.464082
v 1.054536 2.432554 2.264409
v 0.981068 2.508332 2.243435
v 0.981068 2.573217 2.372914
v 1.054536 2.503391 2.395820
v 1.054536 1.334403 1.734041
v 1.054536 1.436135 1.842320
v 0.981068 1.375495 1.884116
v 0.981068 1.273850 1.778922
v 1.054536 1.787874 1.419957
v 0.981068 1.851964 1.378328
v 0.981068 1.950937 1.485721
v 1.054536 1.890534 1.527594
v 1.054536 0.288759 0.845548
v 1.054536 0.406024 0.939690
v 0.981068 0.346978 0.985860
v 0.981068 0.231714 0.894917
v 1.054536 0.710948 0.504131
v 0.981068 0.775157 0.457490
v 0.981068 0.893043 0.544403
v 1.054536 0.835890 0.592065
v 1.054536 -0.052799 0.704172
v 1.054536 0.094139 0.704172
v 0.981068 0.080111 0.784789
v 0.981068 -0.038771 0.784789
v 1.054536 -0.052799 0.121872
v 0.981068 -0.041779 0.028609
v 0.981068 0.083118 0.028609
v 1.054536 0.094139 0.121872
v 0.981068 0.094139 6.558608
v 0.981068 -0.052799 6.558608
v 1.054536 -0.052799 6.485139
v 1.054536 0.094139 6.485139
v 1.054536 -1.999804 5.958051
v 1.054536 -2.146741 5.958051
v 1.054536 -2.146741 5.811113
v 0.981068 -2.073272 5.811113
v 0.981068 -1.999804 5.884582
v 1.054536 -1.999804 6.485139
v 0.981068 -1.999804 6.558608
v 0.981068 -2.146741 6.558608
v 1.054536 -2.146741 6.485139
v 0.981068 -2.776044 5.958051
v 0.981068 -2.776044 5.811113
v 1.054536 -2.702575 5.811113
v 1.054536 -2.702575 5.958051
v 0.981068 -2.776044 6.485139
v 1.054536 -2.702575 6.485139
v 0.981068 -2.702575 6.558608
v 1.054536 -2.125308 3.103375
v 0.981068 -2.048890 3.107539
v 0.981068 -2.073272 3.250313
v 1.054536 -2.146741 3.250313
v 1.054536 -2.676948 3.103375
v 1.054536 -2.702575 3.250313
v 0.981068 -2.776044 3.250313
v 0.981068 -2.754694 3.106546
v 1.054536 -1.868320 2.435804
v 0.981068 -1.796894 2.464082
v 0.981068 -1.867098 2.590816
v 1.054536 -1.936934 2.567943
v 1.054536 -2.391215 2.264409
v 1.054536 -2.462052 2.395820
v 0.981068 -2.531878 2.372914
v 0.981068 -2.466992 2.243435
v 1.054536 -1.293063 1.734041
v 0.981068 -1.232511 1.778922
v 0.981068 -1.334155 1.884116
v 1.054536 -1.394796 1.842320
v 1.054536 -1.746534 1.419957
v 1.054536 -1.849194 1.527594
v 0.981068 -1.909598 1.485721
v 0.981068 -1.810625 1.378328
v 1.054536 -0.247419 0.845548
v 0.981068 -0.190375 0.894917
v 0.981068 -0.305639 0.985860
v 1.054536 -0.364684 0.939690
v 1.054536 -0.669609 0.504131
v 1.054536 -0.794551 0.592065
v 0.981068 -0.851704 0.544403
v 0.981068 -0.733817 0.457490
vn -1.000000 0.000000 -0.000000
vn 0.000000 0.000000 1.000000
vn 0.000000 -1.000000 -0.000000
vn 0.000000 -0.943300 0.331900
vn 0.000000 -0.781700 0.623700
vn 0.000000 -0.650100 0.759800
vn 0.000000 -0.587700 0.809100
vn 0.000000 1.000000 -0.000000
vn 0.000000 0.943300 0.331900
vn 0.000000 0.781700 0.623700
vn 0.000000 0.650100 0.759800
vn 0.000000 0.587700 0.809100
vn 1.000000 0.000000 0.000000
vn 0.000000 0.956800 -0.290600
vn 0.000000 -0.656200 -0.754600
vn 0.000000 0.805500 -0.592600
vn 0.000000 -0.526800 -0.850000
vn 0.000000 0.656200 -0.754600
vn 0.000000 0.000000 -1.000000
vn 0.000000 -0.956800 -0.290600
vn 0.000000 0.526800 -0.850000
vn 0.000000 -0.805500 -0.592600
vn -0.707100 0.000000 0.707100
vn -0.855200 -0.366500 -0.366500
vn -0.577400 0.577300 0.577300
vn -0.707100 0.707100 0.000000
vn -0.711300 -0.694300 0.109800
vn -0.711500 0.693700 -0.112100
vn -0.711200 -0.619500 0.332200
vn -0.713000 0.622000 -0.323600
vn -0.708500 -0.510900 0.486800
vn -0.709500 0.514100 -0.482000
vn -0.707400 -0.440200 0.553000
vn -0.708300 0.412500 -0.572800
vn -0.739100 0.000000 0.673600
vn -0.785500 -0.000000 -0.618800
vn -0.707100 0.000000 -0.707100
vn -0.855200 0.366500 -0.366500
vn -0.577400 -0.577300 0.577300
vn -0.707100 -0.707100 0.000000
vn -0.711300 0.694300 0.109800
vn -0.711500 -0.693700 -0.112100
vn -0.711200 0.619500 0.332200
vn -0.713000 -0.622000 -0.323600
vn -0.708500 0.510900 0.486800
vn -0.709500 -0.514100 -0.482000
vn -0.707400 0.440200 0.553000
vn -0.708300 -0.412500 -0.572800
vn 0.707100 0.000000 -0.707100
vn 0.707100 0.707100 0.000000
vn 0.855200 -0.366500 -0.366500
vn 0.707100 0.000000 0.707100
vn 0.577400 0.577400 0.577300
vn 0.711300 -0.694300 0.109800
vn 0.711500 0.693700 -0.112100
vn 0.711200 -0.619500 0.332200
vn 0.713000 0.622000 -0.323600
vn 0.708500 -0.510900 0.486800
vn 0.709500 0.514100 -0.482000
vn 0.707400 -0.440200 0.553000
vn 0.708300 0.412500 -0.572800
vn 0.739100 0.000000 0.673600
vn 0.785500 0.000000 -0.618800
vn 0.855200 0.366500 -0.366500
vn 0.707100 -0.707100 0.000000
vn 0.577400 -0.577300 0.577300
vn 0.711300 0.694300 0.109800
vn 0.711500 -0.693700 -0.112100
vn 0.711200 0.619500 0.332200
vn 0.713000 -0.622000 -0.323600
vn 0.708500 0.510900 0.486800
vn 0.709500 -0.514100 -0.482000
vn 0.707400 0.440200 0.553000
vn 0.708300 -0.412500 -0.572800
vn -0.707100 0.676600 -0.205500
vn -0.707100 -0.667000 0.234700
vn -0.707100 0.569600 -0.419000
vn -0.707100 -0.552700 0.441000
vn -0.707100 0.464000 -0.533600
vn -0.707100 -0.459700 0.537300
vn -0.707100 0.372500 -0.601000
vn -0.707100 -0.415600 0.572100
vn -0.707100 -0.676600 -0.205500
vn -0.707100 0.667000 0.234700
vn -0.707100 -0.569600 -0.419000
vn -0.707100 0.552700 0.441000
vn -0.707100 -0.464000 -0.533600
vn -0.707100 0.459700 0.537300
vn -0.707100 0.415600 0.572100
vn -0.707100 -0.372500 -0.601000
vn 0.707100 0.676600 -0.205500
vn 0.707100 -0.667000 0.234700
vn 0.707100 0.569600 -0.419000
vn 0.707100 -0.552700 0.441000
vn 0.707100 0.464000 -0.533600
vn 0.707100 -0.459700 0.537300
vn 0.707100 0.372500 -0.601000
vn 0.707100 -0.415600 0.572100
vn 0.707100 -0.676600 -0.205500
vn 0.707100 0.667000 0.234700
vn 0.707100 -0.569600 -0.419000
vn 0.707100 0.552700 0.441000
vn 0.707100 -0.464000 -0.533600
vn 0.707100 0.459700 0.537300
vn 0.707100 0.415600 0.572100
vn 0.707100 -0.372500 -0.601000
vn 0.000000 -0.874800 0.484600
vn 0.000000 -0.985700 0.168300
vn 0.000000 -0.593400 -0.804900
vn 0.000000 -0.735300 -0.677700
vn 0.000000 -0.707100 0.707100
vn 0.000000 0.719100 0.694900
vn 0.000000 0.619400 0.785100
vn 0.000000 0.894000 -0.448000
vn 0.000000 0.735300 -0.677700
vn 0.000000 -0.719100 0.694900
vn 0.000000 -0.707100 -0.707100
vn 0.000000 -0.989200 -0.146900
vn 0.000000 0.593400 -0.804900
vn 0.000000 0.707100 0.707100
vn 0.000000 0.707100 -0.707100
vn 0.000000 0.985700 0.168300
vn 0.000000 -0.619400 0.785100
vn 0.000000 -0.894000 -0.448000
vn 0.000000 0.874800 0.484600
vn 0.000000 0.989200 -0.146900
usemtl Material.001
s off
f 4//1 11//1 16//1 5//1
f 2//2 57//2 173//2 127//2
f 7//3 19//3 135//3 122//3
f 18//4 27//4 143//4 136//4
f 26//5 35//5 151//5 144//5
f 34//6 43//6 159//6 152//6
f 42//7 51//7 167//7 160//7
f 60//2 68//2 183//2 174//2
f 67//2 75//2 192//2 184//2
f 83//8 71//8 180//8 195//8
f 91//9 84//9 194//9 203//9
f 99//10 92//10 202//10 211//10
f 107//11 100//11 210//11 219//11
f 50//12 108//12 218//12 168//12
f 175//13 182//13 177//13 115//13
f 119//13 123//13 134//13 140//13
f 137//13 133//13 142//13 148//13
f 145//13 141//13 150//13 156//13
f 153//13 149//13 158//13 164//13
f 161//13 157//13 166//13 172//13
f 221//13 169//13 165//13 217//13
f 129//13 124//13 118//13 132//13
f 188//13 198//13 196//13 179//13
f 197//13 206//13 204//13 193//13
f 205//13 214//13 212//13 201//13
f 213//13 222//13 220//13 209//13
f 185//13 191//13 189//13 178//13
f 31//14 24//14 138//14 147//14
f 176//13 114//13 125//13 128//13
f 80//3 87//3 199//3 187//3
f 102//15 111//15 223//15 216//15
f 79//1 72//1 82//1 88//1
f 37//1 46//1 44//1 33//1
f 39//16 32//16 146//16 155//16
f 110//17 56//17 170//17 224//17
f 13//8 10//8 130//8 117//8
f 85//1 81//1 90//1 96//1
f 45//1 54//1 52//1 41//1
f 23//8 14//8 120//8 139//8
f 74//3 77//3 186//3 190//3
f 47//18 40//18 154//18 163//18
f 70//19 62//19 116//19 181//19
f 15//1 22//1 20//1 6//1
f 66//1 73//1 78//1 76//1
f 93//1 89//1 98//1 104//1
f 109//1 105//1 49//1 53//1
f 59//1 63//1 69//1 65//1
f 86//20 95//20 207//20 200//20
f 55//21 48//21 162//21 171//21
f 21//1 30//1 28//1 17//1
f 12//2 3//2 126//2 131//2
f 61//19 8//19 121//19 113//19
f 101//1 97//1 106//1 112//1
f 94//22 103//22 215//22 208//22
f 29//1 38//1 36//1 25//1
f 1//23 2//23 3//23 4//23
f 5//24 6//24 7//24 8//24 9//24
f 10//25 11//25 12//25
f 13//26 14//26 15//26 16//26
f 17//27 18//27 19//27 20//27
f 21//28 22//28 23//28 24//28
f 25//29 26//29 27//29 28//29
f 29//30 30//30 31//30 32//30
f 33//31 34//31 35//31 36//31
f 37//32 38//32 39//32 40//32
f 41//33 42//33 43//33 44//33
f 45//34 46//34 47//34 48//34
f 49//35 50//35 51//35 52//35
f 53//36 54//36 55//36 56//36
f 57//23 58//23 59//23 60//23
f 61//37 62//37 63//37 64//37
f 65//23 66//23 67//23 68//23
f 69//38 70//38 71//38 72//38 73//38
f 74//39 75//39 76//39
f 77//40 78//40 79//40 80//40
f 81//41 82//41 83//41 84//41
f 85//42 86//42 87//42 88//42
f 89//43 90//43 91//43 92//43
f 93//44 94//44 95//44 96//44
f 97//45 98//45 99//45 100//45
f 101//46 102//46 103//46 104//46
f 105//47 106//47 107//47 108//47
f 109//48 110//48 111//48 112//48
f 113//49 114//49 115//49 116//49
f 117//50 118//50 119//50 120//50
f 121//51 122//51 123//51 124//51 125//51
f 126//52 127//52 128//52 129//52
f 130//53 131//53 132//53
f 133//54 134//54 135//54 136//54
f 137//55 138//55 139//55 140//55
f 141//56 142//56 143//56 144//56
f 145//57 146//57 147//57 148//57
f 149//58 150//58 151//58 152//58
f 153//59 154//59 155//59 156//59
f 157//60 158//60 159//60 160//60
f 161//61 162//61 163//61 164//61
f 165//62 166//62 167//62 168//62
f 169//63 170//63 171//63 172//63
f 173//52 174//52 175//52 176//52
f 177//64 178//64 179//64 180//64 181//64
f 182//52 183//52 184//52 185//52
f 186//65 187//65 188//65 189//65
f 190//66 191//66 192//66
f 193//67 194//67 195//67 196//67
f 197//68 198//68 199//68 200//68
f 201//69 202//69 203//69 204//69
f 205//70 206//70 207//70 208//70
f 209//71 210//71 211//71 212//71
f 213//72 214//72 215//72 216//72
f 217//73 218//73 219//73 220//73
f 221//74 222//74 223//74 224//74
f 9//1 1//1 4//1 5//1
f 64//37 9//37 8//37 61//37
f 16//26 11//26 10//26 13//26
f 11//23 4//23 3//23 12//23
f 5//1 16//1 15//1 6//1
f 20//1 22//1 21//1 17//1
f 22//26 15//26 14//26 23//26
f 6//40 20//40 19//40 7//40
f 28//1 30//1 29//1 25//1
f 30//75 21//75 24//75 31//75
f 17//76 28//76 27//76 18//76
f 36//1 38//1 37//1 33//1
f 38//77 29//77 32//77 39//77
f 25//78 36//78 35//78 26//78
f 44//1 46//1 45//1 41//1
f 46//79 37//79 40//79 47//79
f 33//80 44//80 43//80 34//80
f 52//1 54//1 53//1 49//1
f 54//81 45//81 48//81 55//81
f 41//82 52//82 51//82 42//82
f 1//23 58//23 57//23 2//23
f 63//1 59//1 58//1 64//1
f 73//1 66//1 65//1 69//1
f 117//50 130//50 132//50 118//50
f 77//40 74//40 76//40 78//40
f 75//23 67//23 66//23 76//23
f 72//1 79//1 78//1 73//1
f 81//1 85//1 88//1 82//1
f 87//40 80//40 79//40 88//40
f 71//26 83//26 82//26 72//26
f 89//1 93//1 96//1 90//1
f 95//83 86//83 85//83 96//83
f 84//84 91//84 90//84 81//84
f 97//1 101//1 104//1 98//1
f 103//85 94//85 93//85 104//85
f 92//86 99//86 98//86 89//86
f 105//1 109//1 112//1 106//1
f 111//87 102//87 101//87 112//87
f 100//88 107//88 106//88 97//88
f 131//52 126//52 129//52 132//52
f 108//89 50//89 49//89 105//89
f 113//49 121//49 125//49 114//49
f 124//13 129//13 128//13 125//13
f 68//23 60//23 59//23 65//23
f 62//37 70//37 69//37 63//37
f 56//90 110//90 109//90 53//90
f 123//13 119//13 118//13 124//13
f 133//13 137//13 140//13 134//13
f 139//50 120//50 119//50 140//50
f 122//65 135//65 134//65 123//65
f 141//13 145//13 148//13 142//13
f 147//91 138//91 137//91 148//91
f 136//92 143//92 142//92 133//92
f 149//13 153//13 156//13 150//13
f 155//93 146//93 145//93 156//93
f 144//94 151//94 150//94 141//94
f 157//13 161//13 164//13 158//13
f 163//95 154//95 153//95 164//95
f 152//96 159//96 158//96 149//96
f 165//13 169//13 172//13 166//13
f 171//97 162//97 161//97 172//97
f 160//98 167//98 166//98 157//98
f 127//52 173//52 176//52 128//52
f 114//13 176//13 175//13 115//13
f 177//13 182//13 185//13 178//13
f 189//65 191//65 190//65 186//65
f 191//52 185//52 184//52 192//52
f 178//13 189//13 188//13 179//13
f 196//13 198//13 197//13 193//13
f 198//65 188//65 187//65 199//65
f 179//50 196//50 195//50 180//50
f 204//13 206//13 205//13 201//13
f 206//99 197//99 200//99 207//99
f 193//100 204//100 203//100 194//100
f 212//13 214//13 213//13 209//13
f 214//101 205//101 208//101 215//101
f 201//102 212//102 211//102 202//102
f 220//13 222//13 221//13 217//13
f 222//103 213//103 216//103 223//103
f 209//104 220//104 219//104 210//104
f 217//105 165//105 168//105 218//105
f 182//52 175//52 174//52 183//52
f 115//49 177//49 181//49 116//49
f 169//106 221//106 224//106 170//106
f 26//107 144//107 143//107 27//107
f 135//108 19//108 18//108 136//108
f 110//109 224//109 223//109 111//109
f 215//110 103//110 102//110 216//110
f 80//3 187//3 186//3 77//3
f 192//111 75//111 74//111 190//111
f 99//112 211//112 210//112 100//112
f 218//113 108//113 107//113 219//113
f 183//2 68//2 67//2 184//2
f 31//114 147//114 146//114 32//114
f 154//115 40//115 39//115 155//115
f 34//116 152//116 151//116 35//116
f 167//2 51//2 50//2 168//2
f 7//117 122//117 121//117 8//117
f 116//19 62//19 61//19 113//19
f 86//118 200//118 199//118 87//118
f 162//119 48//119 47//119 163//119
f 12//120 131//120 130//120 10//120
f 120//8 14//8 13//8 117//8
f 70//121 181//121 180//121 71//121
f 194//122 84//122 83//122 195//122
f 42//123 160//123 159//123 43//123
f 173//2 57//2 60//2 174//2
f 2//2 127//2 126//2 3//2
f 94//124 208//124 207//124 95//124
f 170//19 56//19 55//19 171//19
f 202//125 92//125 91//125 203//125
f 138//126 24//126 23//126 139//126
f 58//1 1//1 9//1 64//1
