# Blender v2.75 (sub 0) OBJ File: 'planet portal.blend'
# www.blender.org
mtllib portalTrigger.mtl
o portalTrigger_Sphere.001
v -10.889256 0.120126 123.562126
v -10.532100 0.120127 118.343246
v -8.204951 0.120127 113.658302
v -4.262098 0.120126 110.220543
v 0.696198 0.120126 108.553337
v 5.915076 0.120125 108.910492
v 10.600015 0.120125 111.237640
v -10.141650 3.747988 124.865669
v -9.150704 6.823542 120.751877
v -6.400072 8.878560 116.805336
v -2.308511 9.600187 113.626869
v 2.501077 8.878560 111.700363
v 7.296472 6.823541 111.319122
v 11.347621 3.747987 112.541183
v -8.336772 5.250697 128.012695
v -5.815724 9.600186 126.566833
v -2.042710 12.506422 124.402939
v 2.407865 13.526957 121.850456
v 6.858439 12.506422 119.297974
v 10.631452 9.600184 117.134079
v 13.152499 5.250695 115.688217
v -9.222049 0.120124 128.520416
v -6.531895 3.747987 131.159729
v -2.480745 6.823539 132.381790
v 2.314651 8.878558 132.000549
v 7.124238 9.600185 130.074036
v 11.215799 8.878558 126.895576
v 13.966431 6.823538 122.949036
v 14.957376 3.747985 118.835243
v 14.037773 0.120124 115.180496
v -5.784290 0.120125 132.463272
v -1.099352 0.120125 134.790421
v 4.119528 0.120124 135.147568
v 9.077823 0.120123 133.480362
v 13.020677 0.120124 130.042603
v 15.347824 0.120123 125.357666
v 15.704981 0.120124 120.138786
v -6.531896 -3.507736 131.159729
v -2.480746 -6.583291 132.381775
v 2.314649 -8.638309 132.000534
v 7.124236 -9.359937 130.074036
v 11.215797 -8.638309 126.895569
v 13.966430 -6.583292 122.949036
v 14.957376 -3.507738 118.835243
v -8.336774 -5.010446 128.012695
v -5.815726 -9.359935 126.566826
v -2.042712 -12.266171 124.402939
v 2.407861 -13.286705 121.850456
v 6.858437 -12.266171 119.297966
v 10.631450 -9.359937 117.134079
v 13.152497 -5.010448 115.688210
v -10.141651 -3.507735 124.865662
v -9.150705 -6.583289 120.751877
v -6.400073 -8.638309 116.805336
v -2.308512 -9.359935 113.626869
v 2.501076 -8.638309 111.700371
v 7.296470 -6.583290 111.319122
v 11.347620 -3.507737 112.541183
vn 0.064600 0.325600 -0.943300
vn -0.608900 0.376400 -0.698300
vn -0.972300 0.224300 -0.066500
vn 0.433500 0.224300 -0.872800
vn -0.295300 0.376400 -0.878200
vn -0.846800 0.325600 -0.420600
vn -0.814500 0.541400 0.208600
vn 0.591300 0.541400 -0.597700
vn -0.030500 0.908700 -0.416400
vn -0.617700 0.786200 -0.021100
vn 0.293700 0.786200 -0.543800
vn -0.344000 0.908700 -0.236600
vn 0.814500 0.541400 -0.208600
vn 0.344000 0.908700 0.236600
vn -0.293700 0.786200 0.543800
vn 0.617700 0.786200 0.021100
vn 0.030500 0.908700 0.416400
vn -0.591300 0.541400 0.597700
vn 0.846800 0.325600 0.420600
vn 0.295300 0.376400 0.878200
vn -0.433500 0.224300 0.872800
vn 0.972300 0.224300 0.066500
vn 0.608900 0.376400 0.698300
vn -0.064600 0.325600 0.943300
vn 0.846800 -0.325600 0.420600
vn 0.295300 -0.376400 0.878200
vn -0.433500 -0.224300 0.872800
vn 0.972300 -0.224300 0.066500
vn 0.608900 -0.376400 0.698300
vn -0.064600 -0.325600 0.943300
vn 0.814500 -0.541400 -0.208600
vn 0.344000 -0.908700 0.236600
vn -0.293700 -0.786200 0.543800
vn 0.617700 -0.786200 0.021100
vn 0.030500 -0.908700 0.416400
vn -0.591300 -0.541400 0.597700
vn -0.030500 -0.908700 -0.416400
vn -0.617700 -0.786200 -0.021100
vn 0.293700 -0.786200 -0.543800
vn -0.344000 -0.908700 -0.236600
vn -0.814500 -0.541400 0.208600
vn 0.591300 -0.541400 -0.597700
vn 0.751300 0.080500 -0.655000
vn -0.944800 0.080500 0.317700
vn -0.888100 0.194500 0.416500
vn 0.808000 0.194500 -0.556200
vn -0.808000 0.194500 0.556200
vn 0.888100 0.194500 -0.416500
vn -0.751300 0.080500 0.655000
vn 0.944800 0.080500 -0.317700
vn -0.751300 -0.080500 0.655000
vn 0.944800 -0.080500 -0.317700
vn -0.808000 -0.194500 0.556200
vn 0.888100 -0.194500 -0.416500
vn -0.888100 -0.194500 0.416500
vn 0.808000 -0.194500 -0.556200
vn 0.751300 -0.080500 -0.655000
vn 0.064600 -0.325600 -0.943300
vn -0.608900 -0.376400 -0.698300
vn -0.972300 -0.224300 -0.066500
vn 0.433500 -0.224300 -0.872800
vn -0.295300 -0.376400 -0.878200
vn -0.846800 -0.325600 -0.420600
vn -0.944800 -0.080500 0.317700
usemtl None
s off
f 6//1 5//1 12//1 13//1
f 4//2 3//2 10//2 11//2
f 2//3 1//3 8//3 9//3
f 7//4 6//4 13//4 14//4
f 5//5 4//5 11//5 12//5
f 3//6 2//6 9//6 10//6
f 9//7 8//7 15//7 16//7
f 14//8 13//8 20//8 21//8
f 12//9 11//9 18//9 19//9
f 10//10 9//10 16//10 17//10
f 13//11 12//11 19//11 20//11
f 11//12 10//12 17//12 18//12
f 21//13 20//13 28//13 29//13
f 19//14 18//14 26//14 27//14
f 17//15 16//15 24//15 25//15
f 20//16 19//16 27//16 28//16
f 18//17 17//17 25//17 26//17
f 16//18 15//18 23//18 24//18
f 28//19 27//19 35//19 36//19
f 26//20 25//20 33//20 34//20
f 24//21 23//21 31//21 32//21
f 29//22 28//22 36//22 37//22
f 27//23 26//23 34//23 35//23
f 25//24 24//24 32//24 33//24
f 36//25 35//25 42//25 43//25
f 34//26 33//26 40//26 41//26
f 32//27 31//27 38//27 39//27
f 37//28 36//28 43//28 44//28
f 35//29 34//29 41//29 42//29
f 33//30 32//30 39//30 40//30
f 44//31 43//31 50//31 51//31
f 42//32 41//32 48//32 49//32
f 40//33 39//33 46//33 47//33
f 43//34 42//34 49//34 50//34
f 41//35 40//35 47//35 48//35
f 39//36 38//36 45//36 46//36
f 49//37 48//37 55//37 56//37
f 47//38 46//38 53//38 54//38
f 50//39 49//39 56//39 57//39
f 48//40 47//40 54//40 55//40
f 46//41 45//41 52//41 53//41
f 51//42 50//42 57//42 58//42
f 30//43 7//43 14//43
f 1//44 22//44 8//44
f 8//45 22//45 15//45
f 30//46 14//46 21//46
f 15//47 22//47 23//47
f 30//48 21//48 29//48
f 23//49 22//49 31//49
f 30//50 29//50 37//50
f 31//51 22//51 38//51
f 30//52 37//52 44//52
f 38//53 22//53 45//53
f 30//54 44//54 51//54
f 45//55 22//55 52//55
f 30//56 51//56 58//56
f 30//57 58//57 7//57
f 57//58 56//58 5//58 6//58
f 55//59 54//59 3//59 4//59
f 53//60 52//60 1//60 2//60
f 58//61 57//61 6//61 7//61
f 56//62 55//62 4//62 5//62
f 54//63 53//63 2//63 3//63
f 52//64 22//64 1//64
