# Blender v2.75 (sub 0) OBJ File: 'race_waypoint.blend'
# www.blender.org
mtllib race_waypoint_trigger.mtl
o Cylinder_Cylinder.001
v -0.303786 2.315255 2.729890
v 0.303786 2.315255 2.729890
v -0.303785 2.005069 1.572262
v 0.303786 2.005069 1.572262
v -0.303785 1.157627 0.724820
v 0.303786 1.157627 0.724820
v -0.303785 -0.000000 0.414635
v 0.303786 -0.000000 0.414635
v -0.303785 -1.157628 0.724820
v 0.303786 -1.157628 0.724820
v -0.303785 -2.005069 1.572262
v 0.303786 -2.005069 1.572262
v -0.303786 -2.315255 2.729889
v 0.303786 -2.315255 2.729890
v -0.303786 -2.005070 3.887517
v 0.303785 -2.005070 3.887517
v -0.303786 -1.157628 4.734959
v 0.303785 -1.157628 4.734959
v -0.303786 -0.000001 5.045145
v 0.303785 -0.000001 5.045145
v -0.303786 1.157626 4.734960
v 0.303785 1.157626 4.734960
v -0.303786 2.005069 3.887519
v 0.303785 2.005069 3.887519
vn 0.000000 0.965900 -0.258800
vn 0.000000 0.707100 -0.707100
vn 0.000000 0.258800 -0.965900
vn 0.000000 -0.258800 -0.965900
vn 0.000000 -0.707100 -0.707100
vn 0.000000 -0.965900 -0.258800
vn -0.000000 -0.965900 0.258800
vn 0.000000 -0.707100 0.707100
vn 0.000000 -0.258800 0.965900
vn 0.000000 0.258800 0.965900
vn 1.000000 -0.000000 0.000000
vn 0.000000 0.965900 0.258800
vn 0.000000 0.707100 0.707100
vn -1.000000 0.000000 -0.000000
usemtl None
s off
f 1//1 2//1 4//1 3//1
f 3//2 4//2 6//2 5//2
f 5//3 6//3 8//3 7//3
f 7//4 8//4 10//4 9//4
f 9//5 10//5 12//5 11//5
f 11//6 12//6 14//6 13//6
f 13//7 14//7 16//7 15//7
f 15//8 16//8 18//8 17//8
f 17//9 18//9 20//9 19//9
f 19//10 20//10 22//10 21//10
f 4//11 2//11 24//11 22//11 20//11 18//11 16//11 14//11 12//11 10//11 8//11 6//11
f 23//12 24//12 2//12 1//12
f 21//13 22//13 24//13 23//13
f 1//14 3//14 5//14 7//14 9//14 11//14 13//14 15//14 17//14 19//14 21//14 23//14
