# Blender v2.75 (sub 0) OBJ File: 'race_waypoint.blend'
# www.blender.org
mtllib race_waypoint_trigger.mtl
o Cylinder_Cylinder.001
v -0.553050 0.029289 9.513943
v 0.553050 0.029289 9.513943
v 0.553050 2.136781 8.949243
v -0.553048 2.136781 8.949243
v 0.553050 3.679571 7.406453
v -0.553048 3.679571 7.406453
v 0.553050 4.244271 5.298964
v -0.553048 4.244271 5.298964
v 0.553050 3.679572 3.191472
v -0.553048 3.679572 3.191472
v 0.553050 2.136782 1.648684
v -0.553048 2.136782 1.648684
v 0.553050 0.029290 1.083982
v -0.553050 0.029293 1.083982
v 0.553048 -2.078199 1.648681
v -0.553050 -2.078199 1.648681
v 0.553048 -3.620990 3.191471
v -0.553050 -3.620990 3.191471
v 0.553048 -4.185691 5.298960
v -0.553050 -4.185691 5.298960
v 0.553048 -3.620991 7.406450
v -0.553050 -3.620991 7.406450
v 0.553048 -2.078203 8.949242
v -0.553050 -2.078203 8.949242
vn 0.000000 0.258800 0.965900
vn 0.000000 0.707100 0.707100
vn 0.000000 0.965900 0.258800
vn 0.000000 0.965900 -0.258800
vn 0.000000 0.707100 -0.707100
vn 0.000000 0.258800 -0.965900
vn -0.000000 -0.258800 -0.965900
vn 0.000000 -0.707100 -0.707100
vn 0.000000 -0.965900 -0.258800
vn 0.000000 -0.965900 0.258800
vn 1.000000 -0.000000 -0.000000
vn 0.000000 -0.258800 0.965900
vn 0.000000 -0.707100 0.707100
vn -1.000000 0.000000 0.000000
usemtl None.001
s 1
f 1//1 2//1 3//1 4//1
f 4//2 3//2 5//2 6//2
f 6//3 5//3 7//3 8//3
f 8//4 7//4 9//4 10//4
f 10//5 9//5 11//5 12//5
f 12//6 11//6 13//6 14//6
f 14//7 13//7 15//7 16//7
f 16//8 15//8 17//8 18//8
f 18//9 17//9 19//9 20//9
f 20//10 19//10 21//10 22//10
f 3//11 2//11 23//11 21//11 19//11 17//11 15//11 13//11 11//11 9//11 7//11 5//11
f 24//12 23//12 2//12 1//12
f 22//13 21//13 23//13 24//13
f 1//14 4//14 6//14 8//14 10//14 12//14 14//14 16//14 18//14 20//14 22//14 24//14
