# Blender v2.75 (sub 0) OBJ File: 'race_waypoint.blend'
# www.blender.org
mtllib race_waypoint.mtl
o Torus
v 0.000000 0.000000 -0.021704
v 0.176777 0.000000 0.051519
v 0.250000 0.000000 0.228296
v 0.176777 0.000000 0.405072
v 0.000000 0.000000 0.478296
v -0.176777 0.000000 0.405072
v -0.250000 0.000000 0.228296
v -0.176776 0.000000 0.051519
v 0.000000 1.375000 0.346726
v 0.176777 1.338389 0.410139
v 0.250000 1.250000 0.563232
v 0.176777 1.161612 0.716326
v 0.000000 1.125000 0.779739
v -0.176777 1.161612 0.716326
v -0.250000 1.250000 0.563232
v -0.176777 1.338389 0.410139
v 0.000000 2.381570 1.353296
v 0.176777 2.318156 1.389908
v 0.250000 2.165063 1.478296
v 0.176777 2.011971 1.566684
v 0.000000 1.948557 1.603296
v -0.176777 2.011971 1.566684
v -0.250000 2.165063 1.478296
v -0.176777 2.318156 1.389908
v 0.000000 2.750000 2.728296
v 0.176777 2.676777 2.728296
v 0.250000 2.500000 2.728296
v 0.176777 2.323223 2.728296
v 0.000000 2.250000 2.728296
v -0.176777 2.323223 2.728296
v -0.250000 2.500000 2.728296
v -0.176777 2.676777 2.728295
v -0.000000 2.381570 4.103296
v 0.176777 2.318157 4.066684
v 0.250000 2.165064 3.978296
v 0.176777 2.011971 3.889907
v -0.000000 1.948557 3.853296
v -0.176777 2.011971 3.889907
v -0.250000 2.165064 3.978296
v -0.176777 2.318157 4.066684
v -0.000000 1.375001 5.109865
v 0.176777 1.338389 5.046452
v 0.250000 1.250001 4.893359
v 0.176777 1.161612 4.740266
v -0.000000 1.125001 4.676853
v -0.176777 1.161612 4.740266
v -0.250000 1.250001 4.893359
v -0.176777 1.338389 5.046452
v -0.000000 0.000000 5.478296
v 0.176776 0.000000 5.405072
v 0.250000 0.000000 5.228296
v 0.176777 0.000000 5.051519
v -0.000000 0.000000 4.978296
v -0.176777 0.000000 5.051519
v -0.250000 0.000000 5.228296
v -0.176777 0.000000 5.405072
v -0.000000 -1.375000 5.109866
v 0.176777 -1.338388 5.046453
v 0.250000 -1.250000 4.893360
v 0.176777 -1.161611 4.740267
v -0.000000 -1.125000 4.676853
v -0.176777 -1.161611 4.740267
v -0.250000 -1.250000 4.893360
v -0.176777 -1.338388 5.046453
v -0.000000 -2.381570 4.103296
v 0.176777 -2.318157 4.066684
v 0.250000 -2.165064 3.978296
v 0.176777 -2.011971 3.889907
v -0.000000 -1.948557 3.853296
v -0.176777 -2.011971 3.889907
v -0.250000 -2.165064 3.978296
v -0.176777 -2.318157 4.066684
v 0.000000 -2.750000 2.728296
v 0.176777 -2.676777 2.728296
v 0.250000 -2.500000 2.728296
v 0.176777 -2.323223 2.728296
v 0.000000 -2.250000 2.728296
v -0.176777 -2.323223 2.728296
v -0.250000 -2.500000 2.728296
v -0.176777 -2.676777 2.728295
v 0.000000 -2.381570 1.353296
v 0.176777 -2.318156 1.389908
v 0.250000 -2.165063 1.478296
v 0.176777 -2.011971 1.566684
v 0.000000 -1.948557 1.603296
v -0.176777 -2.011971 1.566684
v -0.250000 -2.165063 1.478296
v -0.176777 -2.318156 1.389908
v 0.000000 -1.375000 0.346726
v 0.176777 -1.338389 0.410139
v 0.250000 -1.250000 0.563232
v 0.176777 -1.161612 0.716326
v 0.000000 -1.125000 0.779739
v -0.176777 -1.161612 0.716326
v -0.250000 -1.250000 0.563232
v -0.176777 -1.338389 0.410139
vn 0.371500 0.240300 -0.896800
vn 0.919100 0.102000 -0.380700
vn 0.919100 -0.102000 0.380700
vn 0.371500 -0.240300 0.896800
vn -0.371500 -0.240300 0.896800
vn -0.919100 -0.102000 0.380700
vn -0.919100 0.102000 -0.380700
vn -0.371500 0.240300 -0.896800
vn 0.371500 0.656500 -0.656500
vn 0.919100 0.278700 -0.278700
vn 0.919100 -0.278700 0.278700
vn 0.371500 -0.656500 0.656500
vn -0.371500 -0.656500 0.656500
vn -0.919100 -0.278700 0.278700
vn -0.919100 0.278700 -0.278700
vn -0.371500 0.656500 -0.656500
vn 0.371500 0.896800 -0.240300
vn 0.919100 0.380700 -0.102000
vn 0.919100 -0.380700 0.102000
vn 0.371500 -0.896800 0.240300
vn -0.371500 -0.896800 0.240300
vn -0.919100 -0.380700 0.102000
vn -0.919100 0.380700 -0.102000
vn -0.371500 0.896800 -0.240300
vn 0.371500 0.896800 0.240300
vn 0.919100 0.380700 0.102000
vn 0.919100 -0.380700 -0.102000
vn 0.371500 -0.896800 -0.240300
vn -0.371500 -0.896800 -0.240300
vn -0.919100 -0.380700 -0.102000
vn -0.919100 0.380700 0.102000
vn -0.371500 0.896800 0.240300
vn 0.371500 0.656500 0.656500
vn 0.919100 0.278700 0.278700
vn 0.919100 -0.278700 -0.278700
vn 0.371500 -0.656500 -0.656500
vn -0.371500 -0.656500 -0.656500
vn -0.919100 -0.278700 -0.278700
vn -0.919100 0.278700 0.278700
vn -0.371500 0.656500 0.656500
vn 0.371500 0.240300 0.896800
vn 0.919100 0.102000 0.380700
vn 0.919100 -0.102000 -0.380700
vn 0.371500 -0.240300 -0.896800
vn -0.371500 -0.240300 -0.896800
vn -0.919100 -0.102000 -0.380700
vn -0.919100 0.102000 0.380700
vn -0.371500 0.240300 0.896800
usemtl Material.001
s off
f 1//1 9//1 10//1 2//1
f 2//2 10//2 11//2 3//2
f 3//3 11//3 12//3 4//3
f 4//4 12//4 13//4 5//4
f 5//5 13//5 14//5 6//5
f 6//6 14//6 15//6 7//6
f 7//7 15//7 16//7 8//7
f 1//8 8//8 16//8 9//8
f 9//9 17//9 18//9 10//9
f 10//10 18//10 19//10 11//10
f 11//11 19//11 20//11 12//11
f 12//12 20//12 21//12 13//12
f 13//13 21//13 22//13 14//13
f 14//14 22//14 23//14 15//14
f 15//15 23//15 24//15 16//15
f 16//16 24//16 17//16 9//16
f 17//17 25//17 26//17 18//17
f 18//18 26//18 27//18 19//18
f 19//19 27//19 28//19 20//19
f 20//20 28//20 29//20 21//20
f 21//21 29//21 30//21 22//21
f 22//22 30//22 31//22 23//22
f 23//23 31//23 32//23 24//23
f 24//24 32//24 25//24 17//24
f 25//25 33//25 34//25 26//25
f 26//26 34//26 35//26 27//26
f 27//27 35//27 36//27 28//27
f 28//28 36//28 37//28 29//28
f 29//29 37//29 38//29 30//29
f 30//30 38//30 39//30 31//30
f 31//31 39//31 40//31 32//31
f 32//32 40//32 33//32 25//32
f 33//33 41//33 42//33 34//33
f 34//34 42//34 43//34 35//34
f 35//35 43//35 44//35 36//35
f 36//36 44//36 45//36 37//36
f 37//37 45//37 46//37 38//37
f 38//38 46//38 47//38 39//38
f 39//39 47//39 48//39 40//39
f 40//40 48//40 41//40 33//40
f 41//41 49//41 50//41 42//41
f 42//42 50//42 51//42 43//42
f 43//43 51//43 52//43 44//43
f 44//44 52//44 53//44 45//44
f 45//45 53//45 54//45 46//45
f 46//46 54//46 55//46 47//46
f 47//47 55//47 56//47 48//47
f 48//48 56//48 49//48 41//48
f 49//4 57//4 58//4 50//4
f 50//3 58//3 59//3 51//3
f 51//2 59//2 60//2 52//2
f 52//1 60//1 61//1 53//1
f 53//8 61//8 62//8 54//8
f 54//7 62//7 63//7 55//7
f 55//6 63//6 64//6 56//6
f 56//5 64//5 57//5 49//5
f 57//12 65//12 66//12 58//12
f 58//11 66//11 67//11 59//11
f 59//10 67//10 68//10 60//10
f 60//9 68//9 69//9 61//9
f 61//16 69//16 70//16 62//16
f 62//15 70//15 71//15 63//15
f 63//14 71//14 72//14 64//14
f 64//13 72//13 65//13 57//13
f 65//20 73//20 74//20 66//20
f 66//19 74//19 75//19 67//19
f 67//18 75//18 76//18 68//18
f 68//17 76//17 77//17 69//17
f 69//24 77//24 78//24 70//24
f 70//23 78//23 79//23 71//23
f 71//22 79//22 80//22 72//22
f 72//21 80//21 73//21 65//21
f 73//28 81//28 82//28 74//28
f 74//27 82//27 83//27 75//27
f 75//26 83//26 84//26 76//26
f 76//25 84//25 85//25 77//25
f 77//32 85//32 86//32 78//32
f 78//31 86//31 87//31 79//31
f 79//30 87//30 88//30 80//30
f 80//29 88//29 81//29 73//29
f 81//36 89//36 90//36 82//36
f 82//35 90//35 91//35 83//35
f 83//34 91//34 92//34 84//34
f 84//33 92//33 93//33 85//33
f 85//40 93//40 94//40 86//40
f 86//39 94//39 95//39 87//39
f 87//38 95//38 96//38 88//38
f 88//37 96//37 89//37 81//37
f 89//44 1//44 2//44 90//44
f 90//43 2//43 3//43 91//43
f 91//42 3//42 4//42 92//42
f 92//41 4//41 5//41 93//41
f 93//48 5//48 6//48 94//48
f 94//47 6//47 7//47 95//47
f 95//46 7//46 8//46 96//46
f 96//45 8//45 1//45 89//45
