# Blender v2.75 (sub 0) OBJ File: 'rocket.blend'
# www.blender.org
mtllib rocket.mtl
o rocket_Cylinder.001
v 0.026376 0.222686 -0.015200
v 0.026376 0.222686 -0.414193
v 0.076829 -0.020447 -0.385064
v 0.076829 -0.020447 -0.044329
v 0.026376 4.054668 -0.015197
v 0.459389 2.991283 -0.265198
v 0.026376 2.991283 -0.515198
v 0.415652 0.838744 -0.689444
v 0.232685 2.279975 -0.765198
v 0.782053 2.279975 -0.451488
v 0.804927 0.838744 -0.464696
v 0.371914 0.263705 -0.613689
v 0.371914 -0.020447 -0.555432
v 0.459389 2.991283 0.234802
v 0.804927 0.838744 -0.015199
v 0.787082 2.279975 0.167221
v 1.143680 2.084518 0.629877
v 1.173608 0.838743 0.647155
v -0.319162 0.244475 0.184296
v 0.026376 -0.019625 0.103692
v -0.216198 -0.021197 0.243742
v 0.026376 2.991283 0.484802
v 0.415652 0.838743 0.659046
v 0.564709 2.279974 0.552382
v 0.026376 2.279974 0.857382
v 0.026376 0.838743 0.883794
v 0.371914 0.222686 0.184296
v 0.371914 0.244475 0.583290
v 0.268951 -0.021197 0.523843
v 0.268951 -0.019625 0.243742
v -0.406637 2.991283 0.234802
v -0.362899 0.838743 0.659045
v -0.516358 2.279975 0.544759
v -1.090928 2.084518 0.629877
v -1.120856 0.838743 0.647155
v -0.319162 0.244475 0.184296
v 0.026376 0.222686 -0.015200
v -0.406637 2.991283 -0.265198
v -0.752175 0.838744 -0.015199
v -0.729928 2.279975 0.174845
v -0.729300 2.279975 -0.451488
v -0.752175 0.838744 -0.464696
v 0.026376 0.403096 -0.414192
v -0.319162 0.244475 -0.613689
v -0.319162 -0.022310 -0.514909
v -0.579154 -0.022310 -0.364803
v -0.695389 0.339630 -0.440717
v -0.319162 0.244475 -0.613689
v -0.362899 0.838744 -0.689444
v -0.179933 2.279975 -0.765198
v 0.026376 2.084520 -1.305350
v 0.026376 0.838745 -1.339908
v 0.026376 -0.257607 -1.191071
v -0.664700 0.244475 -0.015200
v -0.664700 0.244475 -0.015200
v -0.991958 -0.257609 0.572735
v -0.579154 -0.022310 -0.064591
v -0.319162 0.244475 0.583290
v 0.026376 0.308305 0.782786
v -0.216198 -0.021197 0.523843
v 1.044710 -0.257609 0.572735
v 0.026376 -0.021198 0.663894
v 0.717452 0.263705 -0.015199
v 0.773501 0.334690 -0.436050
v 0.666999 -0.020447 -0.385064
v 0.666999 -0.020447 -0.044329
v 0.371914 -0.020447 0.126038
v -0.059170 -0.018339 -0.064591
v -0.059170 -0.018339 -0.364803
v -0.319162 -0.022310 0.085516
v 0.667064 -0.041405 -0.044349
v 0.667064 -0.041405 -0.385084
v 0.026440 -0.000148 0.593152
v 0.207768 -0.000147 0.488463
v -0.059106 -0.039823 -0.364823
v -0.319098 -0.042804 -0.514929
v 0.076894 -0.041405 -0.385084
v 0.076894 -0.041405 -0.044349
v 0.371979 -0.041405 -0.555451
v -0.579089 -0.042804 -0.364823
v 0.207768 0.000735 0.279084
v 0.026440 0.000735 0.174394
v 0.371979 -0.041405 0.126019
v -0.579089 -0.042804 -0.064610
v -0.319098 -0.042804 0.085496
v -0.154887 -0.000147 0.279084
v -0.154887 -0.000147 0.488463
v -0.059106 -0.039823 -0.064610
v -0.133562 0.001303 -0.321835
v -0.319098 -0.000824 -0.428954
v -0.133562 0.001303 -0.107597
v -0.504633 -0.000824 -0.321835
v -0.319098 -0.000824 -0.000479
v -0.504633 -0.000824 -0.107597
v 0.024851 0.506806 0.174877
v -0.156477 0.505925 0.279567
v 0.371979 0.000330 -0.472757
v 0.595448 0.000330 -0.343737
v 0.593859 0.506402 -0.343254
v 0.370389 0.506402 -0.472274
v -0.506223 0.505247 -0.107115
v -0.320687 0.505247 0.000004
v 0.024851 0.505925 0.593635
v 0.206178 0.505925 0.488946
v -0.135152 0.507375 -0.107115
v -0.135152 0.507375 -0.321352
v -0.506223 0.505247 -0.321352
v 0.148509 0.000330 -0.085696
v 0.371979 0.000330 0.043324
v 0.148509 0.000330 -0.343737
v 0.595448 0.000330 -0.085696
v 0.370389 0.506402 0.043807
v 0.593859 0.506402 -0.085213
v 0.206178 0.506806 0.279567
v -0.156477 0.505925 0.488946
v 0.146919 0.506402 -0.343254
v 0.146919 0.506402 -0.085213
v -0.320687 0.505247 -0.428471
v 0.024851 0.505925 0.384256
v 0.370389 0.506402 -0.214233
v -0.320687 0.505247 -0.214233
vt 0.233479 0.341881
vt 0.099281 0.278882
vt 0.170349 0.235137
vt 0.755441 0.997826
vt 0.754819 0.840932
vt 0.820202 0.854472
vt 0.816130 0.558297
vt 0.833994 0.750667
vt 0.754469 0.739504
vt 0.101098 0.131796
vt 0.168719 0.174617
vt 0.689564 0.854986
vt 0.771855 0.168093
vt 0.718338 0.366741
vt 0.660451 0.349511
vt 0.311278 0.359881
vt 0.323079 0.411403
vt 0.595415 0.997470
vt 0.595717 0.840463
vt 0.661050 0.854401
vt 0.657414 0.557545
vt 0.673724 0.749831
vt 0.595883 0.738959
vt 0.336756 0.251305
vt 0.457349 0.296552
vt 0.397174 0.342152
vt 0.530321 0.854152
vt 0.398738 0.623255
vt 0.369199 0.819857
vt 0.308183 0.771915
vt 0.275497 0.471698
vt 0.273063 0.471532
vt 0.916970 0.996880
vt 0.917123 0.839901
vt 0.982464 0.853749
vt 0.978792 0.557268
vt 0.995927 0.749600
vt 0.917198 0.738487
vt 0.231370 0.343469
vt 0.048050 0.393922
vt 0.106993 0.427301
vt 0.115041 0.475386
vt 0.992475 0.195428
vt 0.906769 0.381713
vt 0.853791 0.355881
vt 0.992475 0.118193
vt 0.882163 0.191693
vt 0.916169 0.489658
vt 0.917098 0.558614
vt 0.855406 0.557339
vt 0.837690 0.749794
vt 0.830741 0.490021
vt 0.911936 0.012412
vt 0.892614 0.131881
vt 0.194544 0.545120
vt 0.194491 0.542164
vt 0.294937 0.649380
vt 0.187994 0.646039
vt 0.258815 0.831775
vt 0.326192 0.938656
vt 0.513392 0.738880
vt 0.046297 0.394438
vt 0.120114 0.338417
vt 0.046297 0.539631
vt 0.288640 0.591262
vt 0.370781 0.525998
vt 0.595887 0.486118
vt 0.595887 0.559911
vt 0.534360 0.557545
vt 0.351252 0.329557
vt 0.373795 0.429637
vt 0.662828 0.172772
vt 0.552450 0.166923
vt 0.570933 0.064458
vt 0.602454 0.365733
vt 0.659445 0.482725
vt 0.676706 0.750519
vt 0.494228 0.413453
vt 0.412471 0.390605
vt 0.401868 0.499847
vt 0.663974 0.001307
vt 0.668161 0.069192
vt 0.756026 0.067237
vt 0.753270 0.489559
vt 0.754370 0.558992
vt 0.692610 0.558361
vt 0.219298 0.050652
vt 0.219881 0.142886
vt 0.329106 0.125629
vt 0.271672 0.170773
vt 0.776094 0.157730
vt 0.809499 0.061104
vt 0.795065 0.362642
vt 0.224710 0.265312
vt 0.276061 0.230110
vt 0.183373 0.405309
vt 0.139633 0.396143
vt 0.200741 0.451735
vt 0.164215 0.486897
vt 0.267978 0.172885
vt 0.398891 0.387299
vt 0.140370 0.399719
vt 0.173980 0.232493
vt 0.224567 0.261146
vt 0.172698 0.176393
vt 0.110933 0.428363
vt 0.117926 0.472341
vt 0.353402 0.340406
vt 0.324021 0.364566
vt 0.163220 0.483563
vt 0.333600 0.402415
vt 0.370464 0.414884
vt 0.181046 0.407926
vt 0.220049 0.147685
vt 0.387667 0.351453
vt 0.272168 0.227999
vt 0.196192 0.450748
vt 0.143672 0.412170
vt 0.123863 0.432397
vt 0.172635 0.417246
vt 0.180296 0.447083
vt 0.159461 0.469877
vt 0.129047 0.461811
vt 0.361541 0.376577
vt 0.361932 0.376609
vt 0.186170 0.183716
vt 0.220262 0.163288
vt 0.222390 0.201894
vt 0.150822 0.439732
vt 0.151003 0.440059
vt 0.361741 0.375918
vt 0.361263 0.375894
vt 0.151280 0.439840
vt 0.151439 0.439559
vt 0.150795 0.439384
vt 0.223977 0.245301
vt 0.258298 0.220971
vt 0.187276 0.224463
vt 0.255164 0.180795
vt 0.221385 0.202330
vt 0.221929 0.202440
vt 0.361218 0.376405
vt 0.221358 0.201600
vt 0.221864 0.201430
vt 0.361902 0.376228
vt 0.151186 0.439174
vt 0.221313 0.201965
vt 0.361597 0.376271
vt 0.221706 0.201943
vt 0.151088 0.439622
vt 0.851747 0.853624
vt 0.858949 0.473264
vt 0.975120 0.473264
vt 0.540479 0.473184
vt 0.651296 0.473184
vt 0.694489 0.477227
vt 0.814050 0.477227
vn -0.979100 -0.203200 -0.000000
vn 0.463100 0.377100 -0.802100
vn 0.498900 0.016200 -0.866500
vn 0.495800 0.017300 -0.868300
vn 0.496600 0.017000 -0.867800
vn -0.483700 -0.191400 -0.854000
vn -0.476300 -0.176600 -0.861300
vn -0.481100 -0.186000 -0.856700
vn 0.926200 0.377100 0.000000
vn 0.855700 0.034700 -0.516300
vn 0.806100 0.084100 -0.585800
vn 0.827100 0.064200 -0.558300
vn -0.470700 -0.378200 -0.797100
vn -0.458200 -0.391500 -0.798000
vn -0.473600 -0.375000 -0.796900
vn 0.463100 0.377100 0.802100
vn 0.498200 0.015300 0.866900
vn 0.492900 0.013400 0.870000
vn 0.494300 0.013900 0.869200
vn 0.925700 -0.378200 0.009100
vn 0.930700 -0.365200 0.019900
vn 0.926900 -0.375000 0.011700
vn -0.463100 0.377100 0.802100
vn 0.022500 0.036500 0.999100
vn 0.115700 0.090800 0.989100
vn 0.078200 0.069000 0.994600
vn 0.000000 0.000000 1.000000
vn -0.926200 0.377100 0.000000
vn -0.999900 0.015800 -0.000300
vn -0.999900 0.015600 -0.001000
vn -0.999900 0.015600 -0.000800
vn -1.000000 -0.000000 0.000000
vn 0.000000 0.000000 0.000000
vn -0.261000 -0.000000 0.965300
vn -0.808100 -0.543100 0.228200
vn -0.476100 -0.305300 -0.824700
vn -0.467200 -0.315300 -0.826000
vn -0.877700 0.038100 -0.477700
vn -0.917700 0.096300 -0.385400
vn -0.903100 0.073000 -0.423200
vn -0.869000 -0.089500 -0.486700
vn -0.851100 -0.127600 -0.509300
vn -0.867800 -0.092100 -0.488300
vn -0.465700 -0.126300 -0.875900
vn -0.497600 -0.098000 -0.861900
vn -0.474200 -0.118900 -0.872400
vn -0.496600 0.017000 -0.867800
vn -0.495800 0.017300 -0.868300
vn -0.498900 0.016200 -0.866500
vn -0.803900 0.390800 -0.448400
vn -0.336400 -0.801000 0.495200
vn -0.991700 -0.127600 0.017400
vn -0.993600 -0.113000 -0.000000
vn -0.990900 -0.132400 0.023000
vn -0.856800 -0.092100 -0.507400
vn -0.866600 -0.127600 -0.482400
vn -0.856000 -0.089500 -0.509200
vn -0.822200 0.069000 -0.565000
vn -0.798800 0.090800 -0.594700
vn -0.854000 0.036500 -0.519000
vn -0.794000 0.399500 -0.458300
vn -0.454900 0.413600 0.788700
vn -0.455200 0.413800 0.788400
vn -0.454800 0.413500 0.788800
vn -0.110600 -0.000000 0.993900
vn -0.500000 -0.000000 0.866000
vn -0.952100 -0.305700 0.000300
vn -0.952200 -0.305600 0.000200
vn -0.685000 -0.219800 0.694600
vn 0.299000 -0.801400 -0.518000
vn 0.013000 -0.089500 0.995900
vn -0.015600 -0.127600 0.991700
vn 0.011100 -0.092100 0.995700
vn -0.482000 -0.152500 0.862800
vn -0.493300 -0.162700 0.854500
vn -0.485700 -0.155800 0.860100
vn -0.499200 0.015600 0.866300
vn -0.499100 0.015600 0.866400
vn -0.499700 0.015800 0.866000
vn 0.451900 0.416900 0.788700
vn 0.448600 0.414700 0.791700
vn 0.450600 0.416000 0.789900
vn -0.000100 0.399500 0.916700
vn 0.598100 -0.801400 -0.000000
vn 0.460200 -0.391100 -0.797100
vn -0.932400 -0.361400 -0.000000
vn 0.485700 -0.155800 0.860200
vn 0.493300 -0.162700 0.854500
vn 0.482000 -0.152500 0.862800
vn -0.011100 -0.092100 0.995700
vn 0.015600 -0.127600 0.991700
vn -0.013000 -0.089500 0.995900
vn -0.069900 0.064200 0.995500
vn -0.104200 0.084100 0.991000
vn -0.019300 0.034700 0.999200
vn 0.016200 0.409600 0.912100
vn 0.908900 0.416900 -0.003000
vn 0.908300 0.418400 0.000000
vn 0.909300 0.416000 -0.004800
vn 0.448000 -0.330600 0.830700
vn 0.433000 -0.305900 0.847900
vn 0.446600 -0.328400 0.832300
vn -0.448000 -0.330600 0.830700
vn -0.466200 -0.361400 0.807500
vn -0.446600 -0.328400 0.832300
vn -0.597100 -0.801000 0.043700
vn 0.855400 -0.091300 -0.509800
vn 0.866100 -0.131800 -0.482100
vn 0.855900 -0.093100 -0.508600
vn 0.991600 -0.113500 0.061900
vn 0.998100 -0.062200 -0.000000
vn 0.993800 -0.101200 0.047000
vn 0.999900 0.013900 -0.006600
vn 0.999900 0.013400 -0.008100
vn 0.999900 0.015300 -0.002000
vn 0.454300 0.410900 -0.790500
vn 0.451800 0.412200 -0.791200
vn 0.453300 0.411400 -0.790700
vn 0.798000 0.409600 -0.442000
vn -0.234600 -0.788500 -0.568500
vn 0.460300 -0.215000 -0.861300
vn 0.428400 -0.253000 -0.867400
vn 0.453100 -0.223700 -0.862900
vn 0.973000 -0.227100 0.041800
vn 0.984600 -0.174800 -0.000000
vn 0.970200 -0.237100 0.049800
vn 0.464400 -0.112000 -0.878500
vn 0.498400 -0.080100 -0.863200
vn 0.454500 -0.121000 -0.882500
vn 0.868500 -0.093100 -0.486900
vn 0.850600 -0.131800 -0.509000
vn 0.869200 -0.091300 -0.485900
vn 0.903100 0.073000 -0.423200
vn 0.917700 0.096300 -0.385400
vn 0.877700 0.038100 -0.477700
vn 0.803900 0.390800 -0.448400
vn -0.489600 -0.203200 0.848000
vn 0.497700 -0.191400 0.845900
vn 0.489600 -0.203200 0.848000
vn 0.501400 -0.186000 0.845000
vn 0.375000 -0.788500 0.487500
vn 0.963500 -0.262100 -0.055000
vn 0.942400 -0.334500 -0.000000
vn 0.964800 -0.256400 -0.059300
vn 0.468300 -0.322200 0.822700
vn 0.461000 -0.308100 0.832200
vn 0.466100 -0.318000 0.825600
vn -0.476100 -0.305300 0.824700
vn 0.527200 -0.248100 -0.812700
vn 0.558800 -0.207500 -0.802900
vn 0.528200 -0.246900 -0.812500
vn 1.000000 0.003100 0.000000
vn -0.162600 -0.945700 -0.281500
vn -0.162500 -0.945700 -0.281500
vn 0.500000 0.002400 -0.866000
vn 0.500000 0.002300 -0.866000
vn -1.000000 -0.003100 -0.000000
vn -0.500000 -0.000800 -0.866000
vn -0.500000 -0.000700 -0.866000
vn -0.157800 -0.948900 0.273400
vn -0.500000 -0.002300 0.866000
vn -0.500000 -0.002400 0.866000
vn 0.324700 -0.945800 -0.000000
vn 1.000000 0.003000 0.000000
vn 0.162400 -0.945800 -0.281300
vn -1.000000 -0.003200 -0.000000
vn -0.319000 -0.947800 -0.004300
vn -0.322600 -0.946500 -0.005300
vn -0.322000 -0.946700 -0.005100
vn 0.500000 0.000700 0.866000
vn 0.500000 0.000800 0.866000
vn 0.163000 -0.947900 0.273800
vn 0.162200 -0.948300 0.272900
vn 0.165300 -0.946900 0.275900
vn -0.236100 -0.873200 0.426400
vn -0.483500 -0.875300 -0.000000
vn 0.245600 -0.871100 0.425300
vn -0.236100 -0.873200 -0.426400
vn 0.245600 -0.871100 -0.425300
vn 0.491100 -0.871100 -0.000000
vn 0.251800 -0.864000 -0.436000
vn 0.251800 -0.864000 -0.436100
vn 0.503500 -0.864000 -0.000000
vn -0.251800 -0.864000 -0.436000
vn -0.251800 -0.864000 0.436000
vn -0.503500 -0.864000 -0.000000
vn 0.251800 -0.864000 0.436000
vn 0.002400 -1.000000 -0.004200
vn -0.000000 -1.000000 -0.000000
vn 0.011500 -0.999900 -0.000000
vn -0.910500 0.413600 -0.000400
vn -0.910600 0.413300 -0.000900
vn -0.910500 0.413500 -0.000600
vn -0.463100 0.377100 -0.802100
vn -0.454300 0.410900 -0.790500
vn -0.456100 0.409900 -0.789900
vn -0.453300 0.411400 -0.790700
vn 0.499900 0.015900 -0.865900
vn -0.489600 -0.203200 -0.848000
vn 0.873700 0.014200 -0.486300
vn -0.482600 -0.365200 -0.796100
vn 0.499900 0.015900 0.865900
vn 0.920200 -0.391500 -0.002200
vn -0.015700 0.014200 0.999800
vn -0.999900 0.015900 0.000000
vn -0.461500 -0.321600 -0.826800
vn -0.858000 0.014200 -0.513500
vn -0.879800 -0.063900 -0.471000
vn -0.443400 -0.145400 -0.884500
vn -0.499900 0.015900 -0.865900
vn -0.988600 -0.145500 0.038800
vn -0.847800 -0.063900 -0.526500
vn -0.873700 0.014200 -0.486300
vn -0.454500 0.413300 0.789100
vn -0.952200 -0.305300 -0.000000
vn 0.032100 -0.063900 0.997400
vn -0.474400 -0.145600 0.868200
vn -0.499900 0.015900 0.865900
vn 0.454100 0.418400 0.786600
vn 0.474400 -0.145600 0.868200
vn -0.032100 -0.063900 0.997400
vn 0.015700 0.014200 0.999800
vn 0.909900 0.414700 -0.007400
vn 0.466200 -0.361400 0.807500
vn -0.433000 -0.305900 0.847900
vn 0.846900 -0.063700 -0.527900
vn 0.983100 -0.149500 0.105700
vn 0.999900 0.015900 0.000000
vn 0.456100 0.409900 -0.789900
vn 0.492300 -0.174800 -0.852700
vn 0.957800 -0.275600 0.081100
vn 0.422000 -0.149900 -0.894100
vn 0.880600 -0.063700 -0.469500
vn 0.858000 0.014200 -0.513500
vn 0.507800 -0.176600 0.843200
vn 0.973400 -0.208700 -0.094300
vn 0.474900 -0.335300 0.813700
vn 0.479700 -0.304700 -0.822800
vn -0.317800 -0.948100 -0.004000
vn 0.165700 -0.946700 0.276400
vn -0.910400 0.413800 0.000000
vn -0.451800 0.412200 -0.791200
usemtl Material.001
s 1
f 1/1/1 2/2/1 3/3/1
f 5/4/2 6/5/2 7/6/2
f 8/7/3 9/8/4 10/9/5
f 2/2/6 12/10/7 13/11/8
f 5/4/9 14/12/9 6/5/9
f 15/13/10 16/14/11 17/15/12
f 1/1/13 20/16/14 21/17/15
f 5/18/16 22/19/16 14/20/16
f 23/21/17 24/22/18 25/23/19
f 27/24/20 28/25/21 29/26/22
f 5/18/23 31/27/23 22/19/23
f 32/28/24 33/29/25 34/30/26
f 1/1/27 19/31/27 36/32/27
f 5/33/28 38/34/28 31/35/28
f 39/36/29 40/37/30 41/38/31
f 2/2/32 1/1/33 37/39/34
f 44/40/35 45/41/36 46/42/37
f 49/43/38 50/44/39 51/45/40
f 48/46/41 49/43/42 52/47/43
f 47/48/44 42/49/45 49/50/46
f 41/38/47 50/51/48 49/50/49
f 7/52/50 51/45/50 50/44/50
f 2/53/51 48/46/51 53/54/51
f 19/31/27 54/55/27 55/56/27
f 39/36/52 42/49/53 47/48/54
f 35/57/55 39/58/56 54/55/57
f 34/30/58 40/59/59 39/58/60
f 31/60/61 40/59/61 34/30/61
f 22/19/62 31/27/63 33/61/64
f 48/62/65 2/2/66 43/63/66
f 47/64/67 46/42/68 55/56/69
f 19/31/70 56/65/70 54/55/70
f 58/66/71 32/28/72 35/57/73
f 59/67/74 26/68/75 32/69/76
f 25/23/77 33/61/78 32/69/79
f 22/19/80 25/23/81 24/22/82
f 31/60/83 34/30/83 33/29/83
f 19/31/84 58/66/84 56/65/84
f 27/24/85 30/70/85 20/16/85
f 19/31/86 21/17/86 60/71/86
f 23/21/87 26/68/88 59/67/89
f 18/72/90 23/73/91 28/74/92
f 17/15/93 24/75/94 23/73/95
f 14/76/96 24/75/96 17/15/96
f 6/5/97 14/12/98 16/77/99
f 28/25/100 59/78/101 62/79/102
f 58/80/103 60/71/104 62/79/105
f 27/81/106 61/82/106 28/74/106
f 63/83/107 15/13/108 18/72/109
f 64/84/110 11/85/111 15/86/112
f 10/9/113 16/77/114 15/86/115
f 6/5/116 10/9/117 9/8/118
f 14/76/119 17/15/119 16/14/119
f 27/81/120 63/83/120 61/82/120
f 12/10/121 64/87/122 65/88/123
f 63/89/124 66/90/125 65/88/126
f 8/7/127 11/85/128 64/84/129
f 52/47/130 8/91/131 12/92/132
f 51/45/133 9/93/134 8/91/135
f 7/52/136 9/93/136 51/45/136
f 1/1/137 4/94/137 67/95/137
f 27/24/138 67/95/139 66/90/140
f 2/53/141 53/54/141 12/92/141
f 37/39/142 68/96/143 69/97/144
f 37/39/145 36/32/146 70/98/147
f 55/56/148 57/99/148 70/98/148
f 44/40/149 43/63/150 69/97/151
f 65/88/152 66/90/152 71/100/152
f 29/26/153 62/79/154 73/101/154
f 45/41/155 69/97/156 75/102/156
f 3/3/157 77/103/157 78/104/157
f 13/11/158 79/105/158 77/103/159
f 45/41/159 76/106/159 80/107/159
f 30/70/160 81/108/160 82/109/160
f 67/95/161 4/94/162 78/104/162
f 70/98/162 57/99/162 84/110/162
f 21/17/163 86/111/163 87/112/163
f 69/97/164 68/96/164 88/113/164
f 65/88/155 72/114/155 79/105/156
f 62/79/165 60/71/165 87/112/165
f 46/42/166 80/107/166 84/110/166
f 30/70/167 29/26/168 74/115/169
f 66/90/170 67/95/171 83/116/171
f 20/16/172 82/109/173 86/111/174
f 70/98/170 85/117/170 88/113/170
f 75/102/175 89/118/175 90/119/175
f 88/113/176 91/120/176 89/118/176
f 80/107/177 76/106/177 90/119/177
f 88/113/178 85/117/178 93/121/178
f 85/117/179 84/110/179 94/122/179
f 84/110/180 80/107/180 92/123/180
f 82/109/170 95/124/170 96/125/170
f 97/126/162 98/127/162 99/128/162
f 94/122/155 101/129/155 102/130/155
f 73/101/159 103/131/159 104/132/159
f 91/120/157 105/133/157 106/134/157
f 94/122/152 92/123/152 107/135/152
f 78/104/181 108/136/182 109/137/181
f 78/104/183 77/103/183 110/138/183
f 83/116/184 109/137/184 111/139/184
f 79/105/185 72/114/185 98/127/185
f 72/114/186 71/100/186 111/139/186
f 79/105/187 97/126/187 110/138/187
f 109/137/159 112/140/159 113/141/159
f 82/109/162 81/108/162 114/142/162
f 111/139/157 113/141/157 99/128/157
f 91/120/159 93/121/159 102/130/159
f 87/112/152 86/111/152 96/125/152
f 108/136/152 110/138/152 116/143/152
f 110/138/170 97/126/170 100/144/170
f 87/112/155 115/145/155 103/131/155
f 89/118/162 106/134/162 118/146/162
f 92/123/170 90/119/170 118/146/170
f 108/136/155 117/147/155 112/140/155
f 81/108/157 74/115/157 104/132/157
f 95/124/188 114/142/188 119/148/188
f 95/124/188 119/148/188 96/125/188
f 96/125/189 119/148/189 115/145/189
f 119/148/189 103/131/189 115/145/189
f 119/148/189 104/132/189 103/131/189
f 119/148/188 114/142/188 104/132/188
f 117/147/189 116/143/189 120/149/189
f 117/147/189 120/149/189 112/140/189
f 112/140/189 120/149/189 113/141/189
f 120/149/189 99/128/189 113/141/189
f 120/149/189 100/144/189 99/128/189
f 120/149/189 116/143/189 100/144/189
f 105/133/190 102/130/190 121/150/190
f 105/133/190 121/150/190 106/134/190
f 106/134/190 121/150/190 118/146/190
f 121/150/189 107/135/189 118/146/189
f 121/150/189 101/129/189 107/135/189
f 121/150/189 102/130/189 101/129/189
f 38/34/191 41/38/192 40/37/193
f 5/33/194 7/151/194 38/34/194
f 38/34/195 7/151/196 50/51/197
f 4/94/1 1/1/1 3/3/1
f 11/85/198 8/7/3 10/9/5
f 3/3/199 2/2/6 13/11/8
f 18/72/200 15/13/10 17/15/12
f 19/31/201 1/1/13 21/17/15
f 26/68/202 23/21/17 25/23/19
f 30/70/203 27/24/20 29/26/22
f 35/57/204 32/28/24 34/30/26
f 37/39/27 1/1/27 36/32/27
f 42/49/205 39/36/29 41/38/31
f 43/63/32 2/2/32 37/39/34
f 47/64/206 48/62/27 44/40/35
f 44/40/35 46/42/37 47/64/206
f 52/47/207 49/43/38 51/45/40
f 53/54/208 48/46/41 52/47/43
f 48/152/209 47/48/44 49/50/46
f 42/49/210 41/38/47 49/50/49
f 36/32/27 19/31/27 55/56/27
f 54/153/211 39/36/52 47/48/54
f 56/65/212 35/57/55 54/55/57
f 35/57/213 34/30/58 39/58/60
f 25/23/214 22/19/62 33/61/64
f 44/40/27 48/62/65 43/63/66
f 55/56/69 54/55/27 47/64/67
f 46/42/68 57/99/215 55/56/69
f 56/65/216 58/66/71 35/57/73
f 58/154/217 59/67/74 32/69/76
f 26/68/218 25/23/77 32/69/79
f 14/20/219 22/19/80 24/22/82
f 1/1/85 27/24/85 20/16/85
f 58/80/86 19/31/86 60/71/86
f 28/155/220 23/21/87 59/67/89
f 61/82/221 18/72/90 28/74/92
f 18/72/222 17/15/93 23/73/95
f 10/9/223 6/5/97 16/77/99
f 29/26/224 28/25/100 62/79/102
f 59/78/225 58/80/103 62/79/105
f 61/82/226 63/83/107 18/72/109
f 63/156/227 64/84/110 15/86/112
f 11/85/228 10/9/113 15/86/115
f 7/6/229 6/5/116 9/8/118
f 13/11/230 12/10/121 65/88/123
f 64/87/231 63/89/124 65/88/126
f 12/157/232 8/7/127 64/84/129
f 53/54/233 52/47/130 12/92/132
f 52/47/234 51/45/133 8/91/135
f 27/24/137 1/1/137 67/95/137
f 63/89/235 27/24/138 66/90/140
f 43/63/236 37/39/142 69/97/144
f 68/96/237 37/39/145 70/98/147
f 36/32/148 55/56/148 70/98/148
f 45/41/238 44/40/149 69/97/151
f 72/114/152 65/88/152 71/100/152
f 74/115/153 29/26/153 73/101/154
f 76/106/155 45/41/155 75/102/156
f 4/94/157 3/3/157 78/104/157
f 3/3/159 13/11/158 77/103/159
f 46/42/159 45/41/159 80/107/159
f 20/16/160 30/70/160 82/109/160
f 83/116/161 67/95/161 78/104/162
f 85/117/162 70/98/162 84/110/162
f 60/71/163 21/17/163 87/112/163
f 75/102/164 69/97/164 88/113/164
f 13/11/156 65/88/155 79/105/156
f 73/101/165 62/79/165 87/112/165
f 57/99/166 46/42/166 84/110/166
f 81/108/239 30/70/167 74/115/169
f 71/100/170 66/90/170 83/116/171
f 21/17/240 20/16/172 86/111/174
f 68/96/170 70/98/170 88/113/170
f 76/106/175 75/102/175 90/119/175
f 75/102/176 88/113/176 89/118/176
f 92/123/177 80/107/177 90/119/177
f 91/120/178 88/113/178 93/121/178
f 93/121/179 85/117/179 94/122/179
f 94/122/180 84/110/180 92/123/180
f 86/111/170 82/109/170 96/125/170
f 100/144/162 97/126/162 99/128/162
f 93/121/155 94/122/155 102/130/155
f 74/115/159 73/101/159 104/132/159
f 89/118/157 91/120/157 106/134/157
f 101/129/152 94/122/152 107/135/152
f 83/116/181 78/104/181 109/137/181
f 108/136/183 78/104/183 110/138/183
f 71/100/184 83/116/184 111/139/184
f 97/126/185 79/105/185 98/127/185
f 98/127/186 72/114/186 111/139/186
f 77/103/187 79/105/187 110/138/187
f 111/139/159 109/137/159 113/141/159
f 95/124/162 82/109/162 114/142/162
f 98/127/157 111/139/157 99/128/157
f 105/133/159 91/120/159 102/130/159
f 115/145/152 87/112/152 96/125/152
f 117/147/152 108/136/152 116/143/152
f 116/143/170 110/138/170 100/144/170
f 73/101/155 87/112/155 103/131/155
f 90/119/162 89/118/162 118/146/162
f 107/135/170 92/123/170 118/146/170
f 109/137/155 108/136/155 112/140/155
f 114/142/157 81/108/157 104/132/157
f 31/35/241 38/34/191 40/37/193
f 41/38/242 38/34/195 50/51/197
