# Blender v2.75 (sub 0) OBJ File: 'collectible shield.blend'
# www.blender.org
mtllib shield.mtl
o Cube.001_Cube
v -0.708318 -2.923542 -2.970500
v -0.708318 -2.923542 2.876585
v -0.708318 2.923542 -2.970500
v -0.708318 2.923542 2.876585
v 0.708318 -2.923542 -2.970500
v 0.708318 -2.923542 2.876585
v 0.708318 2.923542 -2.970500
v 0.708318 2.923542 2.876585
vn -1.000000 0.000000 0.000000
vn 0.000000 1.000000 0.000000
vn 1.000000 0.000000 0.000000
vn 0.000000 -1.000000 0.000000
vn 0.000000 0.000000 -1.000000
vn 0.000000 0.000000 1.000000
usemtl Material.001
s off
f 2//1 4//1 3//1 1//1
f 4//2 8//2 7//2 3//2
f 8//3 6//3 5//3 7//3
f 6//4 2//4 1//4 5//4
f 1//5 3//5 7//5 5//5
f 6//6 8//6 4//6 2//6
o Cube_Cube.001
v 0.993035 -1.339431 3.879676
v 0.993035 -3.870224 1.315589
v 0.993035 -3.047577 2.985221
v 0.993035 -3.870224 -3.881783
v 0.993035 3.891235 -3.881783
v 0.993035 3.891235 3.879676
v 0.993035 -2.386916 3.514502
v 0.993035 -3.574136 2.244837
v 0.993035 3.891235 2.248763
v 0.993035 -3.737139 1.733267
v 0.993035 3.891235 1.732045
v 0.993035 -1.539366 1.732915
v 0.993035 0.146322 -3.881783
v 0.993035 -1.115399 -3.881783
v 0.993035 -2.089968 1.733003
v 0.993035 1.806604 1.732379
v 0.993035 2.348731 1.732292
v 0.993035 1.391563 -3.881783
v 0.993035 -3.870224 -0.360241
v 0.993035 -1.536208 -0.360242
v 0.993035 -2.080494 -0.360241
v 0.993035 1.812916 -0.360241
v 0.993035 2.345745 -0.360241
v 0.993035 3.891235 -0.360241
v 0.993035 -1.908350 -0.988379
v 0.993035 2.137866 -1.127449
v 0.993035 -1.156569 -1.922917
v 0.993035 -0.625393 -2.402115
v 0.993035 0.910470 -2.402659
v 0.993035 0.156278 -2.890904
v 0.993035 1.535615 -1.848380
v 0.993035 1.541157 -1.038899
v 0.993035 0.172388 -2.348130
v 0.993035 -1.255060 -1.052392
v 0.993035 1.029981 -1.673991
v 0.993035 -0.731635 -1.665172
v 0.993035 -1.539378 2.245907
v 0.993035 -2.089993 2.245617
v 0.993035 2.348710 2.247952
v 1.226854 -2.924835 2.849182
v 1.226854 -2.292289 3.355939
v 1.226854 -1.289381 3.705573
v 1.226854 -3.428987 2.140305
v 1.226854 3.718691 -0.353911
v 1.226854 3.718691 -3.725592
v 1.226854 3.718691 3.705573
v 1.226854 -3.712474 -0.353912
v 1.226854 -3.712474 -3.725592
v 1.226854 1.325394 -3.725592
v 1.226854 -3.585052 1.650506
v 1.226854 3.718691 2.144065
v 1.226854 2.473423 2.432206
v 1.226854 -3.712474 1.250603
v 1.226854 3.718691 1.649336
v 1.226854 2.473445 1.886826
v 1.226854 -1.074883 -3.725592
v 1.226854 0.133145 -3.725592
v 1.226854 -0.278056 -3.167226
v 1.226854 -2.221071 1.887579
v 1.226854 -2.028986 -0.990646
v 1.226854 -1.233878 -1.979045
v 1.226854 -2.211051 -0.326306
v 1.226854 -0.672087 -2.485860
v 1.226854 2.250427 -1.137731
v 1.226854 2.470287 -0.326306
v 1.226854 0.571721 -3.147245
v 1.226854 0.952292 -2.486436
v 1.226854 1.613466 -1.900212
v 1.226854 0.154633 -3.002820
v 1.226854 -2.221098 2.429736
v 1.226854 -1.638749 2.430043
v 1.235155 -1.445331 1.604908
v 1.235155 1.713787 1.604402
v 1.235155 -1.442349 -0.371358
v 1.235155 1.719747 -0.371358
v 1.235155 1.463164 -1.012117
v 1.235155 0.980534 -1.611743
v 1.235155 0.170832 -2.248235
v 1.235155 -1.176901 -1.024856
v 1.235155 -0.682706 -1.603416
v -0.000000 -0.694826 -3.881783
v -0.000000 -3.047577 2.985221
v -0.000000 -2.386916 3.514502
v -0.000000 -1.339431 3.879676
v -0.000000 3.891235 1.732045
v -0.000000 3.891235 -0.360241
v -0.000000 -3.870224 -3.881783
v -0.000000 -3.574136 2.244837
v -0.000000 3.891235 -3.881783
v -0.000000 3.891235 3.879676
v -0.000000 -3.870224 -0.360241
v -0.000000 1.391563 -3.881783
v -0.000000 -3.737139 1.733267
v -0.000000 3.891235 2.248763
v -0.000000 -3.870224 1.315589
v -0.993035 -1.339431 3.879676
v -0.993035 -3.870224 1.315589
v -0.993035 -3.047577 2.985221
v -0.993035 -3.870224 -3.881783
v -0.993035 3.891235 -3.881783
v -0.993035 3.891235 3.879676
v -0.993035 -2.386916 3.514502
v -0.993035 -3.574136 2.244837
v -0.993035 3.891235 2.248763
v -0.993035 -3.737139 1.733267
v -0.993035 3.891235 1.732045
v -0.993035 -1.539366 1.732915
v -0.993035 0.146322 -3.881783
v -0.993035 -1.115399 -3.881783
v -0.993035 -2.089968 1.733003
v -0.993035 1.806604 1.732379
v -0.993035 2.348731 1.732292
v -0.993035 1.391563 -3.881783
v -0.993035 -3.870224 -0.360241
v -0.993035 -1.536208 -0.360242
v -0.993035 -2.080494 -0.360241
v -0.993035 1.812916 -0.360241
v -0.993035 2.345745 -0.360241
v -0.993035 3.891235 -0.360241
v -0.993035 -1.908350 -0.988379
v -0.993035 2.137866 -1.127449
v -0.993035 -1.156569 -1.922917
v -0.993035 -0.625393 -2.402115
v -0.993035 0.910470 -2.402659
v -0.993035 0.156278 -2.890904
v -0.993035 1.535615 -1.848380
v -0.993035 1.541157 -1.038899
v -0.993035 0.172388 -2.348130
v -0.993035 -1.255060 -1.052392
v -0.993035 1.029981 -1.673991
v -0.993035 -0.731635 -1.665172
v -0.993035 -1.539378 2.245907
v -0.993035 -2.089993 2.245617
v -0.993035 2.348710 2.247952
v -1.226854 -2.924835 2.849182
v -1.226854 -2.292289 3.355939
v -1.226854 -1.289381 3.705573
v -1.226854 -3.428987 2.140305
v -1.226854 3.718691 -0.353911
v -1.226854 3.718691 -3.725592
v -1.226854 3.718691 3.705573
v -1.226854 -3.712474 -0.353912
v -1.226854 -3.712474 -3.725592
v -1.226854 1.325394 -3.725592
v -1.226854 -3.585052 1.650506
v -1.226854 3.718691 2.144065
v -1.226854 2.473423 2.432206
v -1.226854 -3.712474 1.250603
v -1.226854 3.718691 1.649336
v -1.226854 2.473445 1.886826
v -1.226854 -1.074883 -3.725592
v -1.226854 0.133145 -3.725592
v -1.226854 -0.278056 -3.167226
v -1.226854 -2.221071 1.887579
v -1.226854 -2.028986 -0.990646
v -1.226854 -1.233878 -1.979045
v -1.226854 -2.211051 -0.326306
v -1.226854 -0.672087 -2.485860
v -1.226854 2.250427 -1.137731
v -1.226854 2.470287 -0.326306
v -1.226854 0.571721 -3.147245
v -1.226854 0.952292 -2.486436
v -1.226854 1.613466 -1.900212
v -1.226854 0.154633 -3.002820
v -1.226854 -2.221098 2.429736
v -1.226854 -1.638749 2.430043
v -1.235155 -1.445331 1.604908
v -1.235155 1.713787 1.604402
v -1.235155 -1.442349 -0.371358
v -1.235155 1.719747 -0.371358
v -1.235155 1.463164 -1.012117
v -1.235155 0.980534 -1.611743
v -1.235155 0.170832 -2.248235
v -1.235155 -1.176901 -1.024856
v -1.235155 -0.682706 -1.603416
vn 0.607600 -0.647300 0.460300
vn 0.360700 -0.618800 0.697900
vn 0.555500 0.000000 -0.831500
vn 0.361400 -0.932400 -0.001400
vn 0.618800 0.000400 -0.785500
vn 0.593800 0.804600 0.000000
vn 0.611900 -0.260400 0.746900
vn 0.369500 -0.713100 0.595700
vn 0.489000 0.872300 0.000000
vn 0.470000 -0.882700 0.001300
vn 0.616100 -0.492500 0.614700
vn 0.379000 0.490600 0.784600
vn 0.323500 -0.876700 -0.356100
vn 0.304200 -0.724300 -0.618700
vn 0.487100 0.873300 0.004000
vn 1.000000 -0.000000 0.000000
vn 0.470600 -0.882300 -0.000000
vn 0.369800 -0.504900 0.780000
vn 0.597200 0.000000 0.802100
vn 0.559300 -0.829000 0.000000
vn 0.447300 0.862600 0.236400
vn 0.588100 -0.770600 0.245500
vn 0.429900 -0.871500 0.236100
vn 0.377800 0.721400 0.580300
vn 0.371200 0.622000 0.689500
vn 0.309400 -0.573200 -0.758800
vn 0.322000 0.878900 -0.351900
vn 0.467300 0.000100 0.884100
vn 0.305000 0.741900 -0.597100
vn 0.312000 0.587200 -0.746900
vn 0.359200 0.933200 0.002800
vn 0.000000 1.000000 0.000000
vn 0.000000 -0.952800 0.303600
vn 0.000000 -1.000000 0.000000
vn 0.000000 0.000000 -1.000000
vn 0.000000 0.000000 1.000000
vn 0.000000 -0.814900 0.579600
vn 0.000000 -0.329200 0.944300
vn 0.000000 -0.625200 0.780400
vn -0.607600 -0.647300 0.460300
vn -0.360700 -0.618800 0.697900
vn -0.555500 0.000000 -0.831500
vn -0.361400 -0.932400 -0.001400
vn -0.618800 0.000400 -0.785500
vn -0.593800 0.804600 0.000000
vn -0.611900 -0.260400 0.746900
vn -0.369500 -0.713100 0.595700
vn -0.489000 0.872300 0.000000
vn -0.470000 -0.882700 0.001300
vn -0.616100 -0.492500 0.614700
vn -0.379000 0.490600 0.784600
vn -0.323500 -0.876700 -0.356100
vn -0.304200 -0.724300 -0.618700
vn -0.487100 0.873300 0.004000
vn -1.000000 -0.000000 0.000000
vn -0.470600 -0.882300 -0.000000
vn -0.369800 -0.504900 0.780000
vn -0.597200 0.000000 0.802100
vn -0.559300 -0.829000 0.000000
vn -0.447300 0.862600 0.236400
vn -0.588100 -0.770600 0.245500
vn -0.429900 -0.871500 0.236100
vn -0.377800 0.721400 0.580300
vn -0.371200 0.622000 0.689500
vn -0.309400 -0.573200 -0.758800
vn -0.322000 0.878900 -0.351900
vn -0.467300 0.000100 0.884100
vn -0.305000 0.741900 -0.597100
vn -0.312000 0.587200 -0.746900
vn -0.359200 0.933200 0.002800
vn 0.000000 0.000200 1.000000
vn 0.000000 1.000000 0.003000
vn 0.000000 0.928300 -0.371700
vn 0.000000 0.779000 -0.627000
vn 0.000000 0.618000 -0.786200
vn 0.000000 -0.602800 -0.797900
vn 0.000000 -0.760400 -0.649500
vn 0.000000 -0.926500 -0.376300
vn 0.000000 -1.000000 -0.001500
vn 0.000000 1.000000 0.004500
vn 0.000000 0.362000 -0.932200
vn 0.000000 0.779200 0.626800
vn 0.000000 0.669800 0.742500
vn 0.000000 0.530200 0.847900
vn 0.000000 -0.543400 0.839400
vn 0.000000 -0.663400 0.748200
vn 0.000000 -0.767400 0.641100
vn 0.000000 -0.965200 0.261500
vn 0.000000 -1.000000 0.001400
vn 0.000000 0.000500 -1.000000
vn 0.000000 0.964400 0.264300
usemtl Material
s off
f 16//7 51//7 48//7 11//7
f 37//8 75//8 76//8 39//8
f 22//9 64//9 56//9 12//9
f 28//10 82//10 80//10 20//10
f 47//11 60//11 79//11 45//11
f 19//12 62//12 52//12 32//12
f 15//13 49//13 50//13 9//13
f 39//14 76//14 72//14 34//14
f 46//15 78//15 67//15 23//15
f 31//16 73//16 63//16 25//16
f 11//17 48//17 49//17 15//17
f 36//18 71//18 77//18 38//18
f 21//9 65//9 64//9 22//9
f 45//11 79//11 78//11 46//11
f 42//19 87//19 82//19 28//19
f 44//20 88//20 87//20 42//20
f 23//21 67//21 70//21 29//21
f 67//22 58//22 61//22 55//22 70//22
f 54//22 50//22 49//22 48//22 51//22 78//22 79//22 60//22 59//22
f 59//22 60//22 63//22 62//22
f 62//22 63//22 73//22 52//22
f 72//22 76//22 74//22 65//22 57//22
f 52//22 73//22 72//22 57//22 53//22
f 71//22 69//22 66//22
f 70//22 55//22 56//22 64//22 68//22
f 66//22 69//22 68//22 64//22 65//22
f 74//22 75//22 77//22
f 66//22 77//22 71//22
f 76//22 75//22 74//22
f 74//22 77//22 66//22 65//22
f 78//22 51//22 58//22 67//22
f 25//23 63//23 60//23 47//23
f 32//12 52//12 53//12 13//12
f 38//24 77//24 75//24 37//24
f 9//25 50//25 54//25 14//25
f 12//26 56//26 55//26 27//26
f 13//9 53//9 57//9 26//9
f 26//9 57//9 65//9 21//9
f 29//27 70//27 68//27 33//27
f 18//28 58//28 51//28 16//28
f 14//12 54//12 59//12 17//12
f 34//29 72//29 73//29 31//29
f 27//26 55//26 61//26 10//26
f 10//28 61//28 58//28 18//28
f 33//30 68//30 69//30 35//30
f 17//12 59//12 62//12 19//12
f 35//31 69//31 71//31 36//31
f 81//22 80//22 82//22 83//22
f 85//22 88//22 86//22
f 83//22 82//22 87//22 88//22 85//22 84//22
f 41//32 86//32 88//32 44//32
f 30//33 83//33 84//33 40//33
f 20//34 80//34 81//34 24//34
f 40//35 84//35 85//35 43//35
f 43//36 85//36 86//36 41//36
f 24//37 81//37 83//37 30//37
f 19//38 93//38 102//38 17//38
f 18//39 101//39 103//39 10//39
f 10//40 103//40 99//40 27//40
f 17//38 102//38 98//38 14//38
f 16//39 96//39 101//39 18//39
f 21//41 89//41 100//41 26//41
f 26//41 100//41 97//41 13//41
f 27//40 99//40 95//40 12//40
f 14//42 98//42 92//42 9//42
f 13//38 97//38 94//38 32//38
f 11//43 90//43 96//43 16//43
f 32//38 94//38 93//38 19//38
f 9//44 92//44 91//44 15//44
f 15//45 91//45 90//45 11//45
f 111//46 106//46 143//46 146//46
f 132//47 134//47 171//47 170//47
f 117//48 107//48 151//48 159//48
f 123//49 115//49 175//49 177//49
f 142//50 140//50 174//50 155//50
f 114//51 127//51 147//51 157//51
f 110//52 104//52 145//52 144//52
f 134//53 129//53 167//53 171//53
f 141//54 118//54 162//54 173//54
f 126//55 120//55 158//55 168//55
f 106//56 110//56 144//56 143//56
f 131//57 133//57 172//57 166//57
f 116//48 117//48 159//48 160//48
f 140//50 141//50 173//50 174//50
f 137//58 123//58 177//58 182//58
f 139//59 137//59 182//59 183//59
f 118//60 124//60 165//60 162//60
f 162//61 165//61 150//61 156//61 153//61
f 149//61 154//61 155//61 174//61 173//61 146//61 143//61 144//61 145//61
f 154//61 157//61 158//61 155//61
f 157//61 147//61 168//61 158//61
f 167//61 152//61 160//61 169//61 171//61
f 147//61 148//61 152//61 167//61 168//61
f 166//61 161//61 164//61
f 165//61 163//61 159//61 151//61 150//61
f 161//61 160//61 159//61 163//61 164//61
f 169//61 172//61 170//61
f 161//61 166//61 172//61
f 171//61 169//61 170//61
f 169//61 160//61 161//61 172//61
f 173//61 162//61 153//61 146//61
f 120//62 142//62 155//62 158//62
f 127//51 108//51 148//51 147//51
f 133//63 132//63 170//63 172//63
f 104//64 109//64 149//64 145//64
f 107//65 122//65 150//65 151//65
f 108//48 121//48 152//48 148//48
f 121//48 116//48 160//48 152//48
f 124//66 128//66 163//66 165//66
f 113//67 111//67 146//67 153//67
f 109//51 112//51 154//51 149//51
f 129//68 126//68 168//68 167//68
f 122//65 105//65 156//65 150//65
f 105//67 113//67 153//67 156//67
f 128//69 130//69 164//69 163//69
f 112//51 114//51 157//51 154//51
f 130//70 131//70 166//70 164//70
f 176//61 178//61 177//61 175//61
f 180//61 181//61 183//61
f 178//61 179//61 180//61 183//61 182//61 177//61
f 136//71 139//71 183//71 181//71
f 125//72 135//72 179//72 178//72
f 115//73 119//73 176//73 175//73
f 135//74 138//74 180//74 179//74
f 138//75 136//75 181//75 180//75
f 119//76 125//76 178//76 176//76
f 127//38 114//38 93//38 94//38
f 113//39 105//39 103//39 101//39
f 105//40 122//40 99//40 103//40
f 112//38 109//38 98//38 102//38
f 116//41 121//41 100//41 89//41
f 121//41 108//41 97//41 100//41
f 122//40 107//40 95//40 99//40
f 109//42 104//42 92//42 98//42
f 111//39 113//39 101//39 96//39
f 104//44 110//44 91//44 92//44
f 114//38 112//38 102//38 93//38
f 106//43 111//43 96//43 90//43
f 108//38 127//38 94//38 97//38
f 110//45 106//45 90//45 91//45
f 22//41 89//41 21//41
f 12//41 95//41 89//41 22//41
f 107//41 117//41 89//41 95//41
f 117//41 116//41 89//41
f 24//77 119//77 115//77 20//77
f 30//78 125//78 119//78 24//78
f 40//79 135//79 125//79 30//79
f 43//80 138//80 135//80 40//80
f 41//81 136//81 138//81 43//81
f 41//82 44//82 139//82 136//82
f 44//83 42//83 137//83 139//83
f 42//84 28//84 123//84 137//84
f 28//85 20//85 115//85 123//85
f 46//38 23//38 118//38 141//38
f 29//86 124//86 118//86 23//86
f 29//87 33//87 122//87 128//87 124//87
f 35//88 130//88 128//88 33//88
f 36//89 131//89 130//89 35//89
f 38//90 133//90 131//90 36//90
f 38//91 37//91 132//91 133//91
f 37//92 39//92 134//92 132//92
f 39//93 34//93 129//93 134//93
f 34//94 31//94 126//94 129//94
f 31//95 25//95 120//95 126//95
f 47//40 142//40 120//40 25//40
f 141//96 142//96 47//96 46//96
f 29//97 33//97 128//97 124//97
