# Blender v2.75 (sub 0) OBJ File: ''
# www.blender.org
mtllib shield.mtl
o Sphere
v -1.476588 2.557525 0.000000
v -2.557525 1.476587 0.000000
v -2.557525 -1.476588 0.000000
v -1.476588 -2.557525 0.000000
v -0.738294 2.557525 -1.278762
v -1.278763 1.476587 -2.214881
v -1.476588 -0.000000 -2.557524
v -1.278762 -1.476588 -2.214881
v -0.738294 -2.557525 -1.278762
v -0.000001 2.953175 0.000000
v 0.738293 2.557525 -1.278762
v 1.278762 1.476587 -2.214881
v 1.476587 -0.000000 -2.557524
v 1.278762 -1.476588 -2.214881
v 0.738293 -2.557525 -1.278762
v 1.476587 2.557525 0.000000
v 2.557524 1.476587 0.000000
v 2.953175 -0.000000 0.000000
v 2.557524 -1.476588 0.000000
v 1.476587 -2.557525 0.000000
v -0.000000 -2.953175 0.000000
v 0.738293 2.557525 1.278762
v 1.278761 1.476587 2.214881
v 1.476587 -0.000000 2.557525
v 1.278761 -1.476588 2.214881
v 0.738293 -2.557525 1.278762
v -0.738294 2.557525 1.278762
v -1.278763 1.476587 2.214881
v -1.476589 -0.000000 2.557524
v -1.278763 -1.476588 2.214881
v -0.738295 -2.557525 1.278762
v -2.953176 -0.000000 -0.000001
vn -0.654700 0.654700 -0.378000
vn -0.654700 -0.654700 -0.378000
vn 0.000000 -0.226000 -0.974100
vn 0.000000 0.654700 -0.755900
vn 0.000000 -0.654700 -0.755900
vn 0.000000 0.226000 -0.974100
vn 0.843600 -0.226000 -0.487100
vn 0.654700 0.654700 -0.378000
vn 0.654700 -0.654700 -0.378000
vn 0.843600 0.226000 -0.487100
vn 0.843600 -0.226000 0.487100
vn 0.654700 0.654700 0.378000
vn 0.654700 -0.654700 0.378000
vn 0.843600 0.226000 0.487100
vn -0.000000 0.654700 0.755900
vn -0.000000 -0.654700 0.755900
vn -0.000000 0.226000 0.974100
vn -0.000000 -0.226000 0.974100
vn -0.843600 0.226000 -0.487100
vn -0.256000 0.955300 -0.147800
vn -0.256000 -0.955300 -0.147800
vn -0.843600 -0.226000 -0.487100
vn 0.000000 -0.955300 -0.295600
vn 0.000000 0.955300 -0.295600
vn 0.256000 -0.955300 -0.147800
vn 0.256000 0.955300 -0.147800
vn 0.256000 0.955300 0.147800
vn 0.256000 -0.955300 0.147800
vn -0.000000 0.955300 0.295600
vn -0.000000 -0.955300 0.295600
vn -0.654700 -0.654700 0.378000
vn -0.843600 0.226000 0.487100
vn -0.256000 0.955300 0.147800
vn -0.256000 -0.955300 0.147800
vn -0.843600 -0.226000 0.487100
vn -0.654700 0.654700 0.378000
usemtl None
s off
f 2//1 1//1 5//1 6//1
f 4//2 3//2 8//2 9//2
f 8//3 7//3 13//3 14//3
f 6//4 5//4 11//4 12//4
f 9//5 8//5 14//5 15//5
f 7//6 6//6 12//6 13//6
f 14//7 13//7 18//7 19//7
f 12//8 11//8 16//8 17//8
f 15//9 14//9 19//9 20//9
f 13//10 12//10 17//10 18//10
f 19//11 18//11 24//11 25//11
f 17//12 16//12 22//12 23//12
f 20//13 19//13 25//13 26//13
f 18//14 17//14 23//14 24//14
f 23//15 22//15 27//15 28//15
f 26//16 25//16 30//16 31//16
f 24//17 23//17 28//17 29//17
f 25//18 24//18 29//18 30//18
f 32//19 2//19 6//19 7//19
f 1//20 10//20 5//20
f 21//21 4//21 9//21
f 3//22 32//22 7//22 8//22
f 21//23 9//23 15//23
f 5//24 10//24 11//24
f 21//25 15//25 20//25
f 11//26 10//26 16//26
f 16//27 10//27 22//27
f 21//28 20//28 26//28
f 22//29 10//29 27//29
f 21//30 26//30 31//30
f 31//31 30//31 3//31 4//31
f 29//32 28//32 2//32 32//32
f 27//33 10//33 1//33
f 21//34 31//34 4//34
f 30//35 29//35 32//35 3//35
f 28//36 27//36 1//36 2//36
